<svg width="57" height="59" viewBox="0 0 57 59" fill="none" xmlns="http://www.w3.org/2000/svg">
<path d="M4.80984 22.1704C4.80984 13.8862 11.5256 7.17045 19.8098 7.17045H42C50.2843 7.17045 57 13.8862 57 22.1704V44C57 52.2843 50.2843 59 42 59H19.8098C11.5256 59 4.80984 52.2843 4.80984 44V22.1704Z" fill="url(#paint0_linear_47_13)"/>
<path d="M20.7091 46.1076C13.8951 46.1076 8.72898 44.2058 5.21067 40.4022C1.73689 36.5986 0 30.8268 0 23.087C0 15.4355 1.71462 9.68591 5.14386 5.83808C8.61764 1.94603 13.806 0 20.7091 0C27.523 0 32.6891 1.9018 36.2074 5.7054C39.7258 9.509 41.4849 15.3029 41.4849 23.087C41.4849 30.6942 39.748 36.4438 36.2742 40.3358C32.845 44.1837 27.6566 46.1076 20.7091 46.1076ZM20.7091 40.4022C23.7375 40.3137 26.2092 39.6945 28.1242 38.5446C30.0838 37.3947 31.5312 35.5813 32.4665 33.1046C33.4017 30.5836 33.8693 27.2223 33.8693 23.0206C33.8693 18.9959 33.3794 15.7672 32.3997 13.3347C31.4644 10.8579 30.017 9.0446 28.0574 7.89468C26.1424 6.74475 23.6929 6.16979 20.7091 6.16979C17.7697 6.16979 15.3202 6.74475 13.3607 7.89468C11.4011 9.0446 9.93144 10.8579 8.95166 13.3347C8.01641 15.8115 7.54878 19.0622 7.54878 23.087C7.54878 27.2444 8.01641 30.6057 8.95166 33.1709C9.93144 35.6919 11.4011 37.5274 13.3607 38.6773C15.3202 39.8272 17.7697 40.4022 20.7091 40.4022ZM37.2763 46.4393C37.9443 46.4393 38.5678 46.3508 39.1468 46.1739C40.2196 45.9281 41.4181 46.5288 41.4181 47.6294V49.0481C41.4181 49.8528 40.9862 50.6139 40.2353 50.9035C39.7236 51.1008 39.2049 51.2491 38.6792 51.3486C37.7885 51.5255 36.9423 51.6139 36.1406 51.6139C35.0272 51.6139 33.9584 51.437 32.9341 51.0832C31.9543 50.7736 30.9968 50.2871 30.0615 49.6237C29.1708 49.0045 28.3692 48.1642 27.6566 47.1027C26.944 46.0855 26.3428 44.8692 25.8529 43.4539C25.3185 41.9502 24.695 40.5791 23.9824 39.3407C23.3144 38.0581 22.4905 37.0409 21.5107 36.289C20.5754 35.4929 19.4175 35.0948 18.0369 35.0948C16.4782 35.0948 15.0976 35.4486 13.8951 36.1563C12.6528 36.8874 10.6885 36.0928 10.6885 34.6513V33.9325C10.6885 33.485 10.8492 33.0478 11.1761 32.7421C11.8896 32.0747 12.8182 31.4215 13.9619 30.7826C15.4316 29.9865 17.1685 29.5885 19.1726 29.5885C21.1321 29.5885 22.8913 30.0528 24.45 30.9816C26.0533 31.8662 27.4339 33.1046 28.5919 34.6968C29.7943 36.289 30.7741 38.1908 31.5312 40.4022C32.3774 42.3924 33.2458 43.8962 34.1365 44.9134C35.0718 45.9307 36.1184 46.4393 37.2763 46.4393Z" fill="white"/>
<defs>
<linearGradient id="paint0_linear_47_13" x1="28.5" y1="0" x2="28.5" y2="40.9067" gradientUnits="userSpaceOnUse">
<stop stop-color="#E15F84"/>
<stop offset="0.9999" stop-color="#04152F"/>
</linearGradient>
</defs>
</svg>
