<svg width="126" height="26" viewBox="0 0 126 26" fill="none" xmlns="http://www.w3.org/2000/svg">
<mask id="mask0_91_6" style="mask-type:alpha" maskUnits="userSpaceOnUse" x="0" y="0" width="34" height="26">
<path fill-rule="evenodd" clip-rule="evenodd" d="M18.8077 3.21291L20.6551 7.73491C20.7968 8.08624 21.1084 8.30724 21.4824 8.33558L26.3558 8.69824C27.1604 8.75491 27.8121 9.27058 28.0614 10.0356C28.3108 10.8006 28.0841 11.5996 27.4664 12.1209L23.7321 15.2772C23.4431 15.5209 23.3241 15.8836 23.4148 16.2519L24.5764 21.0006C24.7691 21.7826 24.4858 22.5646 23.8284 23.0349C23.1768 23.5109 22.3494 23.5392 21.6638 23.1142L16.9944 20.2242L12.3251 23.1142C11.6394 23.5392 10.8121 23.5109 10.1604 23.0349C9.50875 22.5589 9.22542 21.7826 9.41242 21.0006L10.5741 16.2519C10.6648 15.8836 10.5457 15.5209 10.2568 15.2772L6.52242 12.1209C5.90475 11.5996 5.67808 10.8006 5.92742 10.0356C6.17675 9.27058 6.82842 8.75491 7.63308 8.69824L12.5064 8.33558C12.8861 8.30724 13.1921 8.08624 13.3338 7.73491L15.1811 3.21291C15.4871 2.46491 16.1728 2.00591 16.9831 2.00591C17.8161 2.00024 18.5017 2.46491 18.8077 3.21291Z" fill="#010202"/>
</mask>
<g mask="url(#mask0_91_6)">
<path d="M3.84912 -1.30762H31.6791V27.0576H3.84912V-1.30762Z" fill="url(#paint0_linear_91_6)"/>
</g>
<mask id="mask1_91_6" style="mask-type:alpha" maskUnits="userSpaceOnUse" x="23" y="0" width="34" height="26">
<path fill-rule="evenodd" clip-rule="evenodd" d="M41.8077 3.21291L43.6551 7.73491C43.7968 8.08624 44.1084 8.30724 44.4824 8.33558L49.3558 8.69824C50.1604 8.75491 50.8121 9.27058 51.0614 10.0356C51.3108 10.8006 51.0841 11.5996 50.4664 12.1209L46.7321 15.2772C46.4431 15.5209 46.3241 15.8836 46.4148 16.2519L47.5764 21.0006C47.7691 21.7826 47.4858 22.5646 46.8284 23.0349C46.1768 23.5109 45.3494 23.5392 44.6638 23.1142L39.9944 20.2242L35.3251 23.1142C34.6394 23.5392 33.8121 23.5109 33.1604 23.0349C32.5087 22.5589 32.2254 21.7826 32.4124 21.0006L33.5741 16.2519C33.6648 15.8836 33.5457 15.5209 33.2568 15.2772L29.5224 12.1209C28.9047 11.5996 28.6781 10.8006 28.9274 10.0356C29.1767 9.27058 29.8284 8.75491 30.6331 8.69824L35.5064 8.33558C35.8861 8.30724 36.1921 8.08624 36.3338 7.73491L38.1811 3.21291C38.4871 2.46491 39.1728 2.00591 39.9831 2.00591C40.8161 2.00024 41.5017 2.46491 41.8077 3.21291Z" fill="#010202"/>
</mask>
<g mask="url(#mask1_91_6)">
<path d="M26.8491 -1.30762H54.6791V27.0576H26.8491V-1.30762Z" fill="url(#paint1_linear_91_6)"/>
</g>
<mask id="mask2_91_6" style="mask-type:alpha" maskUnits="userSpaceOnUse" x="46" y="0" width="34" height="26">
<path fill-rule="evenodd" clip-rule="evenodd" d="M64.8077 3.21291L66.6551 7.73491C66.7968 8.08624 67.1084 8.30724 67.4824 8.33558L72.3558 8.69824C73.1604 8.75491 73.8121 9.27058 74.0614 10.0356C74.3108 10.8006 74.0841 11.5996 73.4664 12.1209L69.7321 15.2772C69.4431 15.5209 69.3241 15.8836 69.4148 16.2519L70.5764 21.0006C70.7691 21.7826 70.4858 22.5646 69.8284 23.0349C69.1768 23.5109 68.3494 23.5392 67.6638 23.1142L62.9944 20.2242L58.3251 23.1142C57.6394 23.5392 56.8121 23.5109 56.1604 23.0349C55.5087 22.5589 55.2254 21.7826 55.4124 21.0006L56.5741 16.2519C56.6648 15.8836 56.5457 15.5209 56.2568 15.2772L52.5224 12.1209C51.9047 11.5996 51.6781 10.8006 51.9274 10.0356C52.1767 9.27058 52.8284 8.75491 53.6331 8.69824L58.5064 8.33558C58.8861 8.30724 59.1921 8.08624 59.3338 7.73491L61.1811 3.21291C61.4871 2.46491 62.1728 2.00591 62.9831 2.00591C63.8161 2.00024 64.5017 2.46491 64.8077 3.21291Z" fill="#010202"/>
</mask>
<g mask="url(#mask2_91_6)">
<path d="M49.8491 -1.30762H77.6791V27.0576H49.8491V-1.30762Z" fill="url(#paint2_linear_91_6)"/>
</g>
<mask id="mask3_91_6" style="mask-type:alpha" maskUnits="userSpaceOnUse" x="69" y="0" width="34" height="26">
<path fill-rule="evenodd" clip-rule="evenodd" d="M87.8077 3.21291L89.6551 7.73491C89.7968 8.08624 90.1084 8.30724 90.4824 8.33558L95.3558 8.69824C96.1604 8.75491 96.8121 9.27058 97.0614 10.0356C97.3108 10.8006 97.0841 11.5996 96.4664 12.1209L92.7321 15.2772C92.4431 15.5209 92.3241 15.8836 92.4148 16.2519L93.5764 21.0006C93.7691 21.7826 93.4858 22.5646 92.8284 23.0349C92.1768 23.5109 91.3494 23.5392 90.6638 23.1142L85.9944 20.2242L81.3251 23.1142C80.6394 23.5392 79.8121 23.5109 79.1604 23.0349C78.5087 22.5589 78.2254 21.7826 78.4124 21.0006L79.5741 16.2519C79.6648 15.8836 79.5457 15.5209 79.2568 15.2772L75.5224 12.1209C74.9047 11.5996 74.6781 10.8006 74.9274 10.0356C75.1767 9.27058 75.8284 8.75491 76.6331 8.69824L81.5064 8.33558C81.8861 8.30724 82.1921 8.08624 82.3338 7.73491L84.1811 3.21291C84.4871 2.46491 85.1728 2.00591 85.9831 2.00591C86.8161 2.00024 87.5017 2.46491 87.8077 3.21291Z" fill="#010202"/>
</mask>
<g mask="url(#mask3_91_6)">
<path d="M72.8491 -1.30762H100.679V27.0576H72.8491V-1.30762Z" fill="url(#paint3_linear_91_6)"/>
</g>
<mask id="mask4_91_6" style="mask-type:alpha" maskUnits="userSpaceOnUse" x="92" y="0" width="34" height="26">
<path fill-rule="evenodd" clip-rule="evenodd" d="M110.808 3.21291L112.655 7.73491C112.797 8.08624 113.108 8.30724 113.482 8.33558L118.356 8.69824C119.16 8.75491 119.812 9.27058 120.061 10.0356C120.311 10.8006 120.084 11.5996 119.466 12.1209L115.732 15.2772C115.443 15.5209 115.324 15.8836 115.415 16.2519L116.576 21.0006C116.769 21.7826 116.486 22.5646 115.828 23.0349C115.177 23.5109 114.349 23.5392 113.664 23.1142L108.994 20.2242L104.325 23.1142C103.639 23.5392 102.812 23.5109 102.16 23.0349C101.509 22.5589 101.225 21.7826 101.412 21.0006L102.574 16.2519C102.665 15.8836 102.546 15.5209 102.257 15.2772L98.5224 12.1209C97.9047 11.5996 97.6781 10.8006 97.9274 10.0356C98.1767 9.27058 98.8284 8.75491 99.6331 8.69824L104.506 8.33558C104.886 8.30724 105.192 8.08624 105.334 7.73491L107.181 3.21291C107.487 2.46491 108.173 2.00591 108.983 2.00591C109.816 2.00024 110.502 2.46491 110.808 3.21291Z" fill="#010202"/>
</mask>
<g mask="url(#mask4_91_6)">
<path d="M95.8491 -1.30762H123.679V27.0576H95.8491V-1.30762Z" fill="url(#paint4_linear_91_6)"/>
</g>
<defs>
<linearGradient id="paint0_linear_91_6" x1="22.2007" y1="-1.30778" x2="3.21578" y2="52.3208" gradientUnits="userSpaceOnUse">
<stop stop-color="#FFC400"/>
<stop offset="1" stop-color="#997500"/>
</linearGradient>
<linearGradient id="paint1_linear_91_6" x1="45.2007" y1="-1.30778" x2="26.2158" y2="52.3208" gradientUnits="userSpaceOnUse">
<stop stop-color="#FFC400"/>
<stop offset="1" stop-color="#997500"/>
</linearGradient>
<linearGradient id="paint2_linear_91_6" x1="68.2007" y1="-1.30778" x2="49.2158" y2="52.3208" gradientUnits="userSpaceOnUse">
<stop stop-color="#FFC400"/>
<stop offset="1" stop-color="#997500"/>
</linearGradient>
<linearGradient id="paint3_linear_91_6" x1="91.2007" y1="-1.30778" x2="72.2158" y2="52.3208" gradientUnits="userSpaceOnUse">
<stop stop-color="#FFC400"/>
<stop offset="1" stop-color="#997500"/>
</linearGradient>
<linearGradient id="paint4_linear_91_6" x1="114.201" y1="-1.30778" x2="95.2158" y2="52.3208" gradientUnits="userSpaceOnUse">
<stop stop-color="#FFC400"/>
<stop offset="1" stop-color="#997500"/>
</linearGradient>
</defs>
</svg>
