<svg width="149" height="43" viewBox="0 0 149 43" fill="none" xmlns="http://www.w3.org/2000/svg">
<path d="M13.1321 35.5065C9.44209 35.5065 6.64443 34.4694 4.73913 32.3953C2.85795 30.3212 1.91736 27.1738 1.91736 22.9532C1.91736 18.7808 2.84589 15.6455 4.70296 13.5473C6.58414 11.4249 9.39385 10.3637 13.1321 10.3637C16.8221 10.3637 19.6198 11.4008 21.5251 13.4749C23.4304 15.5491 24.383 18.7085 24.383 22.9532C24.383 27.1014 23.4424 30.2368 21.5612 32.3591C19.7042 34.4574 16.8945 35.5065 13.1321 35.5065ZM13.1321 32.3953C14.7721 32.3471 16.1106 32.0094 17.1477 31.3823C18.2089 30.7553 18.9927 29.7665 19.4992 28.4159C20.0056 27.0412 20.2589 25.2082 20.2589 22.917C20.2589 20.7223 19.9936 18.9617 19.463 17.6352C18.9565 16.2846 18.1727 15.2958 17.1115 14.6688C16.0745 14.0417 14.748 13.7282 13.1321 13.7282C11.5403 13.7282 10.2139 14.0417 9.15268 14.6688C8.0915 15.2958 7.29561 16.2846 6.76502 17.6352C6.25855 18.9858 6.00531 20.7585 6.00531 22.9532C6.00531 25.2203 6.25855 27.0532 6.76502 28.452C7.29561 29.8267 8.0915 30.8276 9.15268 31.4547C10.2139 32.0818 11.5403 32.3953 13.1321 32.3953ZM22.1039 35.6874C22.4657 35.6874 22.8033 35.6391 23.1168 35.5426C23.4304 35.4703 23.8404 35.2774 24.3468 34.9638V37.8218C23.8645 38.0871 23.3701 38.268 22.8636 38.3644C22.3812 38.4609 21.923 38.5091 21.4889 38.5091C20.8859 38.5091 20.3071 38.4127 19.7524 38.2197C19.2218 38.0509 18.7033 37.7856 18.1968 37.4238C17.7145 37.0862 17.2803 36.6279 16.8945 36.0491C16.5086 35.4944 16.183 34.8312 15.9177 34.0594C15.6283 33.2394 15.2906 32.4918 14.9048 31.8165C14.543 31.117 14.0968 30.5623 13.5662 30.1523C13.0597 29.7182 12.4327 29.5012 11.685 29.5012C10.8409 29.5012 10.0933 29.6941 9.44209 30.08C8.79091 30.4659 8.21208 30.9603 7.70561 31.5632V28.4882C8.11561 28.03 8.7065 27.5838 9.47826 27.1497C10.2741 26.7156 11.2147 26.4985 12.3 26.4985C13.3612 26.4985 14.3139 26.7517 15.158 27.2582C16.0262 27.7406 16.7739 28.4159 17.4009 29.2841C18.0521 30.1523 18.5827 31.1894 18.9927 32.3953C19.4509 33.4806 19.9212 34.3006 20.4036 34.8553C20.9101 35.41 21.4768 35.6874 22.1039 35.6874ZM39.2366 35.5065C35.9566 35.5065 33.4484 34.6744 31.7119 33.0103C29.9754 31.322 29.1072 28.8259 29.1072 25.5217V10.8702H33.1951V25.4856C33.1951 27.7526 33.6895 29.4409 34.6784 30.5503C35.6672 31.6356 37.1504 32.1782 39.1281 32.1782C41.0575 32.1782 42.5287 31.6356 43.5416 30.5503C44.5787 29.4409 45.0972 27.7526 45.0972 25.4856V10.8702H48.9319V25.5217C48.9319 27.7164 48.534 29.5615 47.7381 31.0568C46.9663 32.5521 45.8569 33.6735 44.4099 34.4212C42.9628 35.1447 41.2384 35.5065 39.2366 35.5065ZM52.4069 35L61.8128 10.8702H66.0454L75.1981 35H71.0016L62.9342 12.8238L64.4537 12.679L56.3863 35H52.4069ZM57.0375 28.452L58.1951 25.1961H69.6631L69.9887 28.452H57.0375ZM78.6733 35V10.8702H87.1386C91.0457 10.8702 93.9519 11.8832 95.8572 13.9091C97.7625 15.9349 98.7151 18.9376 98.7151 22.917C98.7151 26.8964 97.7625 29.9112 95.8572 31.9612C93.9519 33.9871 91.0457 35 87.1386 35H78.6733ZM82.6527 31.6356H86.7407C89.4419 31.6356 91.4316 30.9482 92.7098 29.5735C93.9881 28.1747 94.6272 25.9559 94.6272 22.917C94.6272 19.9023 93.9881 17.6955 92.7098 16.2967C91.4316 14.8979 89.4419 14.1985 86.7407 14.1985H82.6527V31.6356ZM103.474 35V10.8702H114.182C116.691 10.8702 118.608 11.4852 119.934 12.7152C121.285 13.9211 121.96 15.7299 121.96 18.1417C121.96 19.3958 121.707 20.5535 121.201 21.6147C120.694 22.6758 119.959 23.5441 118.994 24.2194C118.029 24.8947 116.884 25.2806 115.557 25.377L115.991 24.147L123.154 35H118.198L111.505 24.1832L113.35 25.8835H107.453V35H103.474ZM107.453 22.6276H113.061C114.653 22.6276 115.834 22.2779 116.606 21.5785C117.402 20.8791 117.8 19.8179 117.8 18.3949C117.8 17.0685 117.486 16.0435 116.859 15.3199C116.256 14.5964 115.207 14.2346 113.712 14.2346H107.453V22.6276ZM125.29 35L134.696 10.8702H138.929L148.081 35H143.885L135.817 12.8238L137.337 12.679L129.269 35H125.29ZM129.921 28.452L131.078 25.1961H142.546L142.872 28.452H129.921Z" fill="#04142D"/>
<rect x="54.9956" y="22.0622" width="18.0883" height="3.01471" fill="white"/>
<rect x="127.372" y="22.0622" width="18.0883" height="3.01471" fill="white"/>
<rect x="103.254" y="24.8714" width="18.0883" height="3.01471" fill="white"/>
</svg>
