<svg width="307" height="177" viewBox="0 0 307 177" fill="none" xmlns="http://www.w3.org/2000/svg">
<mask id="path-1-outside-1_21_5" maskUnits="userSpaceOnUse" x="-3" y="-2" width="312" height="181" fill="black">
<rect fill="white" x="-3" y="-2" width="312" height="181"/>
<path d="M33.42 44H13.98L4.47035e-08 2H14.7L23.7 29.06L32.7 2H47.4L33.42 44ZM71.9648 28.16V17.84H97.1648V28.16H71.9648ZM121.751 2H163.751V15.98H149.771V44H135.731V15.98H121.751V2ZM205.933 44H170.953V2H205.933V12.5H184.933V17.72H202.453V28.22H184.933V33.5H205.933V44ZM232.922 45.8C220.382 45.8 210.122 35.6 210.122 23C210.122 10.46 220.382 0.259998 232.922 0.259998C242.822 0.259998 251.522 6.62 254.582 15.98L240.122 17.9C238.442 15.62 235.742 14.12 232.922 14.12C228.122 14.12 224.162 18.08 224.162 23C224.162 27.86 228.122 31.94 232.922 31.94C235.742 31.94 238.442 30.44 240.122 28.16L254.582 30.08C251.522 39.44 242.822 45.8 232.922 45.8ZM260.627 2H274.607V15.98H288.647V2H302.627V44H288.647V30.02H274.607V44H260.627V2ZM4.47035e-08 68H13.98L30.3 84.56L46.62 68H60.6V110H46.62V87.32L30.3 102.98L13.98 87.32V110H4.47035e-08V68ZM89.4492 111.8C76.9092 111.8 66.6492 101.6 66.6492 89.06C66.6492 76.52 76.9092 66.26 89.4492 66.26C101.989 66.26 112.189 76.52 112.189 89.06C112.189 101.6 101.989 111.8 89.4492 111.8ZM89.4492 97.94C94.2492 97.94 98.2092 93.98 98.2092 89.06C98.2092 84.08 94.2492 80.12 89.4492 80.12C84.5892 80.12 80.6292 84.08 80.6292 89.06C80.6292 93.98 84.5892 97.94 89.4492 97.94ZM133.899 87.14V96.02H147.879V87.14C147.879 83.24 145.119 79.76 140.859 79.76C136.659 79.76 133.899 83.24 133.899 87.14ZM150.699 113.48V110H131.019V113.48H116.979L117.099 96.02H119.919V87.14C119.919 75.56 129.279 66.2 140.859 66.2C152.439 66.2 161.859 75.56 161.859 87.14V96.02H164.619L164.739 113.48H150.699ZM206.376 110H171.396V68H206.376V78.5H185.376V83.72H202.896V94.22H185.376V99.5H206.376V110ZM225.731 68H245.291L259.271 110H244.511L235.511 82.94L226.511 110H211.751L225.731 68ZM289.125 89H278.625V96.02H289.125C291.105 96.02 292.665 94.46 292.665 92.48C292.665 90.56 291.105 89 289.125 89ZM289.125 110H264.645V68H278.625V75.02H289.125C298.785 75.02 306.645 82.82 306.645 92.48C306.645 102.14 298.785 110 289.125 110ZM0.0600002 169.22C0.0600002 163.34 1.56 159.2 4.68 156.56C9.54 152.48 16.2 150.86 25.38 150.56C26.82 150.5 27.96 149.36 27.96 147.98C27.96 146.54 26.76 145.34 25.38 145.34H16.62C15.36 145.34 14.04 146.42 14.04 147.98H0.0600002V147.08C0.0600002 139.34 6.3 133.1 14.04 133.1H27.96C35.7 133.1 41.94 139.34 41.94 147.08C41.94 156.32 36.12 160.16 27.96 160.16C21.84 160.16 18.06 160.04 14.94 162.02H40.2V176H0.0600002V169.22ZM72.5578 176.9H65.4778C55.8778 176.9 47.9578 169.04 47.9578 159.38V150.62C47.9578 140.96 55.8778 133.1 65.4778 133.1H72.5578C82.2778 133.1 90.0778 140.96 90.0778 150.62V159.38C90.0778 169.04 82.2778 176.9 72.5578 176.9ZM65.4778 162.92H72.5578C74.4778 162.92 76.0378 161.36 76.0378 159.38V150.62C76.0378 148.64 74.4778 147.08 72.5578 147.08H65.4778C63.5578 147.08 61.9978 148.64 61.9978 150.62V159.38C61.9978 161.36 63.5578 162.92 65.4778 162.92ZM96.1795 169.22C96.1795 163.34 97.6795 159.2 100.8 156.56C105.66 152.48 112.32 150.86 121.5 150.56C122.94 150.5 124.08 149.36 124.08 147.98C124.08 146.54 122.88 145.34 121.5 145.34H112.74C111.48 145.34 110.16 146.42 110.16 147.98H96.1795V147.08C96.1795 139.34 102.42 133.1 110.16 133.1H124.08C131.82 133.1 138.06 139.34 138.06 147.08C138.06 156.32 132.24 160.16 124.08 160.16C117.96 160.16 114.18 160.04 111.06 162.02H136.32V176H96.1795V169.22ZM144.033 134H158.013V156.74H168.513V141.02H182.493V176H168.513V168.98H144.033V134Z"/>
</mask>
<path d="M33.42 44V46H34.8622L35.3176 44.6316L33.42 44ZM13.98 44L12.0824 44.6316L12.5378 46H13.98V44ZM0 2V-2.86102e-06H-2.7736L-1.89764 2.63164L0 2ZM14.7 2L16.5978 1.3688L16.1425 -2.86102e-06H14.7V2ZM23.7 29.06L21.8022 29.6912L23.7 35.3972L25.5978 29.6912L23.7 29.06ZM32.7 2V-2.86102e-06H31.2575L30.8022 1.3688L32.7 2ZM47.4 2L49.2976 2.63164L50.1736 -2.86102e-06H47.4V2ZM33.42 42H13.98V46H33.42V42ZM15.8776 43.3684L1.89764 1.36835L-1.89764 2.63164L12.0824 44.6316L15.8776 43.3684ZM0 4H14.7V-2.86102e-06H0V4ZM12.8022 2.63119L21.8022 29.6912L25.5978 28.4288L16.5978 1.3688L12.8022 2.63119ZM25.5978 29.6912L34.5978 2.63119L30.8022 1.3688L21.8022 28.4288L25.5978 29.6912ZM32.7 4H47.4V-2.86102e-06H32.7V4ZM45.5024 1.36835L31.5224 43.3684L35.3176 44.6316L49.2976 2.63164L45.5024 1.36835ZM71.9648 28.16H69.9648V30.16H71.9648V28.16ZM71.9648 17.84V15.84H69.9648V17.84H71.9648ZM97.1648 17.84H99.1648V15.84H97.1648V17.84ZM97.1648 28.16V30.16H99.1648V28.16H97.1648ZM73.9648 28.16V17.84H69.9648V28.16H73.9648ZM71.9648 19.84H97.1648V15.84H71.9648V19.84ZM95.1648 17.84V28.16H99.1648V17.84H95.1648ZM97.1648 26.16H71.9648V30.16H97.1648V26.16ZM121.751 2V-2.86102e-06H119.751V2H121.751ZM163.751 2H165.751V-2.86102e-06H163.751V2ZM163.751 15.98V17.98H165.751V15.98H163.751ZM149.771 15.98V13.98H147.771V15.98H149.771ZM149.771 44V46H151.771V44H149.771ZM135.731 44H133.731V46H135.731V44ZM135.731 15.98H137.731V13.98H135.731V15.98ZM121.751 15.98H119.751V17.98H121.751V15.98ZM121.751 4H163.751V-2.86102e-06H121.751V4ZM161.751 2V15.98H165.751V2H161.751ZM163.751 13.98H149.771V17.98H163.751V13.98ZM147.771 15.98V44H151.771V15.98H147.771ZM149.771 42H135.731V46H149.771V42ZM137.731 44V15.98H133.731V44H137.731ZM135.731 13.98H121.751V17.98H135.731V13.98ZM123.751 15.98V2H119.751V15.98H123.751ZM205.933 44V46H207.933V44H205.933ZM170.953 44H168.953V46H170.953V44ZM170.953 2V-2.86102e-06H168.953V2H170.953ZM205.933 2H207.933V-2.86102e-06H205.933V2ZM205.933 12.5V14.5H207.933V12.5H205.933ZM184.933 12.5V10.5H182.933V12.5H184.933ZM184.933 17.72H182.933V19.72H184.933V17.72ZM202.453 17.72H204.453V15.72H202.453V17.72ZM202.453 28.22V30.22H204.453V28.22H202.453ZM184.933 28.22V26.22H182.933V28.22H184.933ZM184.933 33.5H182.933V35.5H184.933V33.5ZM205.933 33.5H207.933V31.5H205.933V33.5ZM205.933 42H170.953V46H205.933V42ZM172.953 44V2H168.953V44H172.953ZM170.953 4H205.933V-2.86102e-06H170.953V4ZM203.933 2V12.5H207.933V2H203.933ZM205.933 10.5H184.933V14.5H205.933V10.5ZM182.933 12.5V17.72H186.933V12.5H182.933ZM184.933 19.72H202.453V15.72H184.933V19.72ZM200.453 17.72V28.22H204.453V17.72H200.453ZM202.453 26.22H184.933V30.22H202.453V26.22ZM182.933 28.22V33.5H186.933V28.22H182.933ZM184.933 35.5H205.933V31.5H184.933V35.5ZM203.933 33.5V44H207.933V33.5H203.933ZM254.582 15.98L254.845 17.9626L257.231 17.6458L256.483 15.3585L254.582 15.98ZM240.122 17.9L238.512 19.0864L239.213 20.0382L240.385 19.8826L240.122 17.9ZM240.122 28.16L240.385 26.1774L239.213 26.0218L238.512 26.9736L240.122 28.16ZM254.582 30.08L256.483 30.7015L257.231 28.4142L254.845 28.0974L254.582 30.08ZM232.922 43.8C221.483 43.8 212.122 34.492 212.122 23H208.122C208.122 36.708 219.281 47.8 232.922 47.8V43.8ZM212.122 23C212.122 11.5714 221.48 2.26 232.922 2.26V-1.74C219.284 -1.74 208.122 9.34858 208.122 23H212.122ZM232.922 2.26C241.952 2.26 249.888 8.05943 252.681 16.6015L256.483 15.3585C253.155 5.18057 243.692 -1.74 232.922 -1.74V2.26ZM254.319 13.9974L239.859 15.9174L240.385 19.8826L254.845 17.9626L254.319 13.9974ZM241.732 16.7136C239.715 13.9762 236.442 12.12 232.922 12.12V16.12C235.042 16.12 237.169 17.2637 238.512 19.0864L241.732 16.7136ZM232.922 12.12C227 12.12 222.162 16.9932 222.162 23H226.162C226.162 19.1668 229.244 16.12 232.922 16.12V12.12ZM222.162 23C222.162 28.9204 226.974 33.94 232.922 33.94V29.94C229.27 29.94 226.162 26.7996 226.162 23H222.162ZM232.922 33.94C236.442 33.94 239.715 32.0837 241.732 29.3464L238.512 26.9736C237.169 28.7962 235.042 29.94 232.922 29.94V33.94ZM239.859 30.1426L254.319 32.0626L254.845 28.0974L240.385 26.1774L239.859 30.1426ZM252.681 29.4585C249.888 38.0006 241.952 43.8 232.922 43.8V47.8C243.692 47.8 253.155 40.8794 256.483 30.7015L252.681 29.4585ZM260.627 2V-2.86102e-06H258.627V2H260.627ZM274.607 2H276.607V-2.86102e-06H274.607V2ZM274.607 15.98H272.607V17.98H274.607V15.98ZM288.647 15.98V17.98H290.647V15.98H288.647ZM288.647 2V-2.86102e-06H286.647V2H288.647ZM302.627 2H304.627V-2.86102e-06H302.627V2ZM302.627 44V46H304.627V44H302.627ZM288.647 44H286.647V46H288.647V44ZM288.647 30.02H290.647V28.02H288.647V30.02ZM274.607 30.02V28.02H272.607V30.02H274.607ZM274.607 44V46H276.607V44H274.607ZM260.627 44H258.627V46H260.627V44ZM260.627 4H274.607V-2.86102e-06H260.627V4ZM272.607 2V15.98H276.607V2H272.607ZM274.607 17.98H288.647V13.98H274.607V17.98ZM290.647 15.98V2H286.647V15.98H290.647ZM288.647 4H302.627V-2.86102e-06H288.647V4ZM300.627 2V44H304.627V2H300.627ZM302.627 42H288.647V46H302.627V42ZM290.647 44V30.02H286.647V44H290.647ZM288.647 28.02H274.607V32.02H288.647V28.02ZM272.607 30.02V44H276.607V30.02H272.607ZM274.607 42H260.627V46H274.607V42ZM262.627 44V2H258.627V44H262.627ZM0 68V66H-2V68H0ZM13.98 68L15.4045 66.5961L14.817 66H13.98V68ZM30.3 84.56L28.8755 85.9639L30.3 87.4093L31.7245 85.9639L30.3 84.56ZM46.62 68V66H45.783L45.1955 66.5961L46.62 68ZM60.6 68H62.6V66H60.6V68ZM60.6 110V112H62.6V110H60.6ZM46.62 110H44.62V112H46.62V110ZM46.62 87.32H48.62V82.6291L45.2353 85.8769L46.62 87.32ZM30.3 102.98L28.9153 104.423L30.3 105.752L31.6847 104.423L30.3 102.98ZM13.98 87.32L15.3647 85.8769L11.98 82.6291V87.32H13.98ZM13.98 110V112H15.98V110H13.98ZM0 110H-2V112H0V110ZM0 70H13.98V66H0V70ZM12.5555 69.4038L28.8755 85.9639L31.7245 83.1561L15.4045 66.5961L12.5555 69.4038ZM31.7245 85.9639L48.0445 69.4039L45.1955 66.5961L28.8755 83.1561L31.7245 85.9639ZM46.62 70H60.6V66H46.62V70ZM58.6 68V110H62.6V68H58.6ZM60.6 108H46.62V112H60.6V108ZM48.62 110V87.32H44.62V110H48.62ZM45.2353 85.8769L28.9153 101.537L31.6847 104.423L48.0047 88.7631L45.2353 85.8769ZM31.6847 101.537L15.3647 85.8769L12.5953 88.7631L28.9153 104.423L31.6847 101.537ZM11.98 87.32V110H15.98V87.32H11.98ZM13.98 108H0V112H13.98V108ZM2 110V68H-2V110H2ZM89.4492 109.8C78.0069 109.8 68.6492 100.489 68.6492 89.06H64.6492C64.6492 102.711 75.8115 113.8 89.4492 113.8V109.8ZM68.6492 89.06C68.6492 77.6246 78.0138 68.26 89.4492 68.26V64.26C75.8046 64.26 64.6492 75.4154 64.6492 89.06H68.6492ZM89.4492 68.26C100.878 68.26 110.189 77.6177 110.189 89.06H114.189C114.189 75.4223 103.101 64.26 89.4492 64.26V68.26ZM110.189 89.06C110.189 100.495 100.885 109.8 89.4492 109.8V113.8C103.094 113.8 114.189 102.705 114.189 89.06H110.189ZM89.4492 99.94C95.3715 99.94 100.209 95.0668 100.209 89.06H96.2092C96.2092 92.8932 93.127 95.94 89.4492 95.94V99.94ZM100.209 89.06C100.209 83.002 95.3802 78.12 89.4492 78.12V82.12C93.1182 82.12 96.2092 85.158 96.2092 89.06H100.209ZM89.4492 78.12C83.4671 78.12 78.6292 82.9931 78.6292 89.06H82.6292C82.6292 85.1669 85.7114 82.12 89.4492 82.12V78.12ZM78.6292 89.06C78.6292 95.0757 83.4758 99.94 89.4492 99.94V95.94C85.7026 95.94 82.6292 92.8843 82.6292 89.06H78.6292ZM133.899 96.02H131.899V98.02H133.899V96.02ZM147.879 96.02V98.02H149.879V96.02H147.879ZM150.699 113.48H148.699V115.48H150.699V113.48ZM150.699 110H152.699V108H150.699V110ZM131.019 110V108H129.019V110H131.019ZM131.019 113.48V115.48H133.019V113.48H131.019ZM116.979 113.48L114.979 113.466L114.965 115.48H116.979V113.48ZM117.099 96.02V94.02H115.113L115.099 96.0063L117.099 96.02ZM119.919 96.02V98.02H121.919V96.02H119.919ZM161.859 96.02H159.859V98.02H161.859V96.02ZM164.619 96.02L166.619 96.0063L166.605 94.02H164.619V96.02ZM164.739 113.48V115.48H166.753L166.739 113.466L164.739 113.48ZM131.899 87.14V96.02H135.899V87.14H131.899ZM133.899 98.02H147.879V94.02H133.899V98.02ZM149.879 96.02V87.14H145.879V96.02H149.879ZM149.879 87.14C149.879 82.3376 146.415 77.76 140.859 77.76V81.76C143.822 81.76 145.879 84.1424 145.879 87.14H149.879ZM140.859 77.76C135.352 77.76 131.899 82.3498 131.899 87.14H135.899C135.899 84.1302 137.966 81.76 140.859 81.76V77.76ZM152.699 113.48V110H148.699V113.48H152.699ZM150.699 108H131.019V112H150.699V108ZM129.019 110V113.48H133.019V110H129.019ZM131.019 111.48H116.979V115.48H131.019V111.48ZM118.979 113.494L119.099 96.0337L115.099 96.0063L114.979 113.466L118.979 113.494ZM117.099 98.02H119.919V94.02H117.099V98.02ZM121.919 96.02V87.14H117.919V96.02H121.919ZM121.919 87.14C121.919 76.6646 130.383 68.2 140.859 68.2V64.2C128.174 64.2 117.919 74.4554 117.919 87.14H121.919ZM140.859 68.2C151.342 68.2 159.859 76.672 159.859 87.14H163.859C163.859 74.448 153.536 64.2 140.859 64.2V68.2ZM159.859 87.14V96.02H163.859V87.14H159.859ZM161.859 98.02H164.619V94.02H161.859V98.02ZM162.619 96.0337L162.739 113.494L166.739 113.466L166.619 96.0063L162.619 96.0337ZM164.739 111.48H150.699V115.48H164.739V111.48ZM206.376 110V112H208.376V110H206.376ZM171.396 110H169.396V112H171.396V110ZM171.396 68V66H169.396V68H171.396ZM206.376 68H208.376V66H206.376V68ZM206.376 78.5V80.5H208.376V78.5H206.376ZM185.376 78.5V76.5H183.376V78.5H185.376ZM185.376 83.72H183.376V85.72H185.376V83.72ZM202.896 83.72H204.896V81.72H202.896V83.72ZM202.896 94.22V96.22H204.896V94.22H202.896ZM185.376 94.22V92.22H183.376V94.22H185.376ZM185.376 99.5H183.376V101.5H185.376V99.5ZM206.376 99.5H208.376V97.5H206.376V99.5ZM206.376 108H171.396V112H206.376V108ZM173.396 110V68H169.396V110H173.396ZM171.396 70H206.376V66H171.396V70ZM204.376 68V78.5H208.376V68H204.376ZM206.376 76.5H185.376V80.5H206.376V76.5ZM183.376 78.5V83.72H187.376V78.5H183.376ZM185.376 85.72H202.896V81.72H185.376V85.72ZM200.896 83.72V94.22H204.896V83.72H200.896ZM202.896 92.22H185.376V96.22H202.896V92.22ZM183.376 94.22V99.5H187.376V94.22H183.376ZM185.376 101.5H206.376V97.5H185.376V101.5ZM204.376 99.5V110H208.376V99.5H204.376ZM225.731 68V66H224.289L223.833 67.3684L225.731 68ZM245.291 68L247.188 67.3684L246.733 66H245.291V68ZM259.271 110V112H262.044L261.168 109.368L259.271 110ZM244.511 110L242.613 110.631L243.068 112H244.511V110ZM235.511 82.94L237.409 82.3088L235.511 76.6028L233.613 82.3088L235.511 82.94ZM226.511 110V112H227.953L228.409 110.631L226.511 110ZM211.751 110L209.853 109.368L208.977 112H211.751V110ZM225.731 70H245.291V66H225.731V70ZM243.393 68.6316L257.373 110.632L261.168 109.368L247.188 67.3684L243.393 68.6316ZM259.271 108H244.511V112H259.271V108ZM246.409 109.369L237.409 82.3088L233.613 83.5712L242.613 110.631L246.409 109.369ZM233.613 82.3088L224.613 109.369L228.409 110.631L237.409 83.5712L233.613 82.3088ZM226.511 108H211.751V112H226.511V108ZM213.648 110.632L227.628 68.6316L223.833 67.3684L209.853 109.368L213.648 110.632ZM278.625 89V87H276.625V89H278.625ZM278.625 96.02H276.625V98.02H278.625V96.02ZM264.645 110H262.645V112H264.645V110ZM264.645 68V66H262.645V68H264.645ZM278.625 68H280.625V66H278.625V68ZM278.625 75.02H276.625V77.02H278.625V75.02ZM289.125 87H278.625V91H289.125V87ZM276.625 89V96.02H280.625V89H276.625ZM278.625 98.02H289.125V94.02H278.625V98.02ZM289.125 98.02C292.209 98.02 294.665 95.5646 294.665 92.48H290.665C290.665 93.3554 290 94.02 289.125 94.02V98.02ZM294.665 92.48C294.665 89.4332 292.187 87 289.125 87V91C290.022 91 290.665 91.6868 290.665 92.48H294.665ZM289.125 108H264.645V112H289.125V108ZM266.645 110V68H262.645V110H266.645ZM264.645 70H278.625V66H264.645V70ZM276.625 68V75.02H280.625V68H276.625ZM278.625 77.02H289.125V73.02H278.625V77.02ZM289.125 77.02C297.689 77.02 304.645 83.9335 304.645 92.48H308.645C308.645 81.7065 299.88 73.02 289.125 73.02V77.02ZM304.645 92.48C304.645 101.035 297.68 108 289.125 108V112C299.889 112 308.645 103.245 308.645 92.48H304.645ZM4.68 156.56L3.39405 155.028L3.38812 155.033L4.68 156.56ZM25.38 150.56L25.4453 152.559L25.4543 152.559L25.4633 152.558L25.38 150.56ZM14.04 147.98V149.98H16.04V147.98H14.04ZM0.0600002 147.98H-1.94V149.98H0.0600002V147.98ZM14.94 162.02L13.8684 160.331L8.05592 164.02H14.94V162.02ZM40.2 162.02H42.2V160.02H40.2V162.02ZM40.2 176V178H42.2V176H40.2ZM0.0600002 176H-1.94V178H0.0600002V176ZM2.06 169.22C2.06 163.656 3.47389 160.2 5.97188 158.087L3.38812 155.033C-0.35389 158.2 -1.94 163.024 -1.94 169.22H2.06ZM5.96594 158.092C10.3078 154.447 16.4127 152.854 25.4453 152.559L25.3147 148.561C15.9873 148.866 8.77221 150.513 3.39406 155.028L5.96594 158.092ZM25.4633 152.558C27.8968 152.457 29.96 150.508 29.96 147.98H25.96C25.96 148.212 25.7432 148.543 25.2967 148.562L25.4633 152.558ZM29.96 147.98C29.96 145.465 27.8941 143.34 25.38 143.34V147.34C25.4827 147.34 25.628 147.387 25.7622 147.523C25.8944 147.657 25.96 147.824 25.96 147.98H29.96ZM25.38 143.34H16.62V147.34H25.38V143.34ZM16.62 143.34C14.3455 143.34 12.04 145.227 12.04 147.98H16.04C16.04 147.793 16.1116 147.643 16.2379 147.522C16.3843 147.383 16.5452 147.34 16.62 147.34V143.34ZM14.04 145.98H0.0600002V149.98H14.04V145.98ZM2.06 147.98V147.08H-1.94V147.98H2.06ZM2.06 147.08C2.06 140.445 7.40457 135.1 14.04 135.1V131.1C5.19543 131.1 -1.94 138.235 -1.94 147.08H2.06ZM14.04 135.1H27.96V131.1H14.04V135.1ZM27.96 135.1C34.5954 135.1 39.94 140.445 39.94 147.08H43.94C43.94 138.235 36.8046 131.1 27.96 131.1V135.1ZM39.94 147.08C39.94 151.258 38.6426 153.914 36.7107 155.565C34.7242 157.262 31.7613 158.16 27.96 158.16V162.16C32.3187 162.16 36.3459 161.138 39.3093 158.605C42.3274 156.026 43.94 152.142 43.94 147.08H39.94ZM27.96 158.16C24.9609 158.16 22.3497 158.127 20.119 158.358C17.8366 158.595 15.7788 159.119 13.8684 160.331L16.0117 163.709C17.2212 162.941 18.6134 162.535 20.531 162.337C22.5003 162.133 24.8391 162.16 27.96 162.16V158.16ZM14.94 164.02H40.2V160.02H14.94V164.02ZM38.2 162.02V176H42.2V162.02H38.2ZM40.2 174H0.0600002V178H40.2V174ZM2.06 176V169.22H-1.94V176H2.06ZM72.5578 174.9H65.4778V178.9H72.5578V174.9ZM65.4778 174.9C56.9779 174.9 49.9578 167.931 49.9578 159.38H45.9578C45.9578 170.149 54.7777 178.9 65.4778 178.9V174.9ZM49.9578 159.38V150.62H45.9578V159.38H49.9578ZM49.9578 150.62C49.9578 142.069 56.9779 135.1 65.4778 135.1V131.1C54.7777 131.1 45.9578 139.851 45.9578 150.62H49.9578ZM65.4778 135.1H72.5578V131.1H65.4778V135.1ZM72.5578 135.1C81.1688 135.1 88.0778 142.06 88.0778 150.62H92.0778C92.0778 139.86 83.3868 131.1 72.5578 131.1V135.1ZM88.0778 150.62V159.38H92.0778V150.62H88.0778ZM88.0778 159.38C88.0778 167.94 81.1688 174.9 72.5578 174.9V178.9C83.3868 178.9 92.0778 170.14 92.0778 159.38H88.0778ZM65.4778 164.92H72.5578V160.92H65.4778V164.92ZM72.5578 164.92C75.6046 164.92 78.0378 162.442 78.0378 159.38H74.0378C74.0378 160.278 73.351 160.92 72.5578 160.92V164.92ZM78.0378 159.38V150.62H74.0378V159.38H78.0378ZM78.0378 150.62C78.0378 147.558 75.6046 145.08 72.5578 145.08V149.08C73.351 149.08 74.0378 149.722 74.0378 150.62H78.0378ZM72.5578 145.08H65.4778V149.08H72.5578V145.08ZM65.4778 145.08C62.431 145.08 59.9978 147.558 59.9978 150.62H63.9978C63.9978 149.722 64.6846 149.08 65.4778 149.08V145.08ZM59.9978 150.62V159.38H63.9978V150.62H59.9978ZM59.9978 159.38C59.9978 162.442 62.431 164.92 65.4778 164.92V160.92C64.6846 160.92 63.9978 160.278 63.9978 159.38H59.9978ZM100.8 156.56L99.5136 155.028L99.5076 155.033L100.8 156.56ZM121.5 150.56L121.565 152.559L121.574 152.559L121.583 152.558L121.5 150.56ZM110.16 147.98V149.98H112.16V147.98H110.16ZM96.1795 147.98H94.1795V149.98H96.1795V147.98ZM111.06 162.02L109.988 160.331L104.175 164.02H111.06V162.02ZM136.32 162.02H138.32V160.02H136.32V162.02ZM136.32 176V178H138.32V176H136.32ZM96.1795 176H94.1795V178H96.1795V176ZM98.1795 169.22C98.1795 163.656 99.5934 160.2 102.091 158.087L99.5076 155.033C95.7656 158.2 94.1795 163.024 94.1795 169.22H98.1795ZM102.085 158.092C106.427 154.447 112.532 152.854 121.565 152.559L121.434 148.561C112.107 148.866 104.892 150.513 99.5136 155.028L102.085 158.092ZM121.583 152.558C124.016 152.457 126.08 150.508 126.08 147.98H122.08C122.08 148.212 121.863 148.543 121.416 148.562L121.583 152.558ZM126.08 147.98C126.08 145.465 124.014 143.34 121.5 143.34V147.34C121.602 147.34 121.747 147.387 121.882 147.523C122.014 147.657 122.08 147.824 122.08 147.98H126.08ZM121.5 143.34H112.74V147.34H121.5V143.34ZM112.74 143.34C110.465 143.34 108.16 145.227 108.16 147.98H112.16C112.16 147.793 112.231 147.643 112.357 147.522C112.504 147.383 112.665 147.34 112.74 147.34V143.34ZM110.16 145.98H96.1795V149.98H110.16V145.98ZM98.1795 147.98V147.08H94.1795V147.98H98.1795ZM98.1795 147.08C98.1795 140.445 103.524 135.1 110.16 135.1V131.1C101.315 131.1 94.1795 138.235 94.1795 147.08H98.1795ZM110.16 135.1H124.08V131.1H110.16V135.1ZM124.08 135.1C130.715 135.1 136.06 140.445 136.06 147.08H140.06C140.06 138.235 132.924 131.1 124.08 131.1V135.1ZM136.06 147.08C136.06 151.258 134.762 153.914 132.83 155.565C130.844 157.262 127.881 158.16 124.08 158.16V162.16C128.438 162.16 132.465 161.138 135.429 158.605C138.447 156.026 140.06 152.142 140.06 147.08H136.06ZM124.08 158.16C121.08 158.16 118.469 158.127 116.238 158.358C113.956 158.595 111.898 159.119 109.988 160.331L112.131 163.709C113.341 162.941 114.733 162.535 116.651 162.337C118.62 162.133 120.959 162.16 124.08 162.16V158.16ZM111.06 164.02H136.32V160.02H111.06V164.02ZM134.32 162.02V176H138.32V162.02H134.32ZM136.32 174H96.1795V178H136.32V174ZM98.1795 176V169.22H94.1795V176H98.1795ZM144.033 134V132H142.033V134H144.033ZM158.013 134H160.013V132H158.013V134ZM158.013 156.74H156.013V158.74H158.013V156.74ZM168.513 156.74V158.74H170.513V156.74H168.513ZM168.513 141.02V139.02H166.513V141.02H168.513ZM182.493 141.02H184.493V139.02H182.493V141.02ZM182.493 176V178H184.493V176H182.493ZM168.513 176H166.513V178H168.513V176ZM168.513 168.98H170.513V166.98H168.513V168.98ZM144.033 168.98H142.033V170.98H144.033V168.98ZM144.033 136H158.013V132H144.033V136ZM156.013 134V156.74H160.013V134H156.013ZM158.013 158.74H168.513V154.74H158.013V158.74ZM170.513 156.74V141.02H166.513V156.74H170.513ZM168.513 143.02H182.493V139.02H168.513V143.02ZM180.493 141.02V176H184.493V141.02H180.493ZM182.493 174H168.513V178H182.493V174ZM170.513 176V168.98H166.513V176H170.513ZM168.513 166.98H144.033V170.98H168.513V166.98ZM146.033 168.98V134H142.033V168.98H146.033Z" fill="white" mask="url(#path-1-outside-1_21_5)"/>
</svg>
