<svg width="738" height="122" viewBox="0 0 738 122" fill="none" xmlns="http://www.w3.org/2000/svg">
<mask id="path-1-outside-1_21_2" maskUnits="userSpaceOnUse" x="-2" y="-2" width="743" height="126" fill="black">
<rect fill="white" x="-2" y="-2" width="743" height="126"/>
<path d="M61.2 121.8C27.6 121.8 0.4 94.6 0.4 61.16C0.4 27.72 27.6 0.359995 61.2 0.359995C94.64 0.359995 121.84 27.72 121.84 61.16C121.84 75.56 116.72 88.84 108.24 99.24L122 117H86.64L86.16 116.36C78.48 119.88 70 121.8 61.2 121.8ZM48.72 68.52L70.96 51.4L83.6 67.72C84.24 65.64 84.56 63.4 84.56 61.16C84.56 47.88 74 37.32 61.2 37.32C48.24 37.32 37.68 47.88 37.68 61.16C37.68 74.28 48.24 84.84 61.2 84.84C61.2 84.84 61.36 84.84 61.52 84.84L48.72 68.52ZM131.688 4.99999H168.968V65.96C168.968 76.36 176.328 85.64 187.528 85.64C198.888 85.64 206.248 76.36 206.248 65.96V4.99999H243.528V65.96C243.528 96.84 218.408 121.8 187.528 121.8C156.648 121.8 131.688 96.84 131.688 65.96V4.99999ZM316.724 79.72L305.044 44.84L293.524 79.72H316.724ZM241.844 117L279.124 4.99999H330.964L368.244 117H329.044L326.004 107.72H284.084L281.044 117H241.844ZM432.181 117H376.181V4.99999H432.181C463.061 4.99999 488.181 30.12 488.181 61C488.181 91.88 463.061 117 432.181 117ZM413.461 42.28V79.72H432.181C442.421 79.72 450.901 71.24 450.901 61C450.901 50.76 442.421 42.28 432.181 42.28H413.461ZM566.343 42.28H538.343V61H566.343C571.623 61 575.783 56.84 575.783 51.72C575.783 46.44 571.623 42.28 566.343 42.28ZM501.063 117V4.99999H566.343C592.103 4.99999 613.063 25.96 613.063 51.72C613.063 70.28 602.023 86.6 586.183 93.96L603.783 117H562.663L549.383 98.28H538.343V117H501.063ZM686.255 79.72L674.575 44.84L663.055 79.72H686.255ZM611.375 117L648.655 4.99999H700.495L737.775 117H698.575L695.535 107.72H653.615L650.575 117H611.375Z"/>
</mask>
<path d="M108.24 99.24L106.69 97.9761L105.685 99.2082L106.659 100.465L108.24 99.24ZM122 117V119H126.08L123.581 115.775L122 117ZM86.64 117L85.04 118.2L85.64 119H86.64V117ZM86.16 116.36L87.76 115.16L86.7925 113.87L85.3267 114.542L86.16 116.36ZM48.72 68.52L47.5 66.9352L45.9008 68.1663L47.1463 69.7543L48.72 68.52ZM70.96 51.4L72.5412 50.1753L71.3202 48.5988L69.74 49.8152L70.96 51.4ZM83.6 67.72L82.0188 68.9447L84.3783 71.9911L85.5116 68.3082L83.6 67.72ZM61.52 84.84V86.84H65.6304L63.0937 83.6057L61.52 84.84ZM61.2 119.8C28.7011 119.8 2.4 93.492 2.4 61.16H-1.6C-1.6 95.708 26.4989 123.8 61.2 123.8V119.8ZM2.4 61.16C2.4 28.8211 28.708 2.35999 61.2 2.35999V-1.64001C26.492 -1.64001 -1.6 26.6189 -1.6 61.16H2.4ZM61.2 2.35999C93.5286 2.35999 119.84 28.8177 119.84 61.16H123.84C123.84 26.6223 95.7514 -1.64001 61.2 -1.64001V2.35999ZM119.84 61.16C119.84 75.0785 114.892 87.9164 106.69 97.9761L109.79 100.504C118.548 89.7636 123.84 76.0415 123.84 61.16H119.84ZM106.659 100.465L120.419 118.225L123.581 115.775L109.821 98.0151L106.659 100.465ZM122 115H86.64V119H122V115ZM88.24 115.8L87.76 115.16L84.56 117.56L85.04 118.2L88.24 115.8ZM85.3267 114.542C77.9038 117.944 69.7076 119.8 61.2 119.8V123.8C70.2924 123.8 79.0562 121.816 86.9933 118.178L85.3267 114.542ZM49.94 70.1048L72.18 52.9848L69.74 49.8152L47.5 66.9352L49.94 70.1048ZM69.3788 52.6247L82.0188 68.9447L85.1812 66.4953L72.5412 50.1753L69.3788 52.6247ZM85.5116 68.3082C86.2139 66.0254 86.56 63.5862 86.56 61.16H82.56C82.56 63.2138 82.2661 65.2546 81.6884 67.1318L85.5116 68.3082ZM86.56 61.16C86.56 46.802 75.131 35.32 61.2 35.32V39.32C72.869 39.32 82.56 48.958 82.56 61.16H86.56ZM61.2 35.32C47.1179 35.32 35.68 46.7931 35.68 61.16H39.68C39.68 48.9669 49.3622 39.32 61.2 39.32V35.32ZM35.68 61.16C35.68 75.3757 47.1266 86.84 61.2 86.84V82.84C49.3534 82.84 39.68 73.1843 39.68 61.16H35.68ZM61.2 84.84C61.2 86.84 61.2 86.84 61.2 86.84C61.2 86.84 61.2 86.84 61.2 86.84C61.2 86.84 61.2 86.84 61.2 86.84C61.2 86.84 61.2 86.84 61.2 86.84C61.2 86.84 61.2 86.84 61.2001 86.84C61.2001 86.84 61.2001 86.84 61.2001 86.84C61.2001 86.84 61.2001 86.84 61.2001 86.84C61.2001 86.84 61.2001 86.84 61.2001 86.84C61.2001 86.84 61.2001 86.84 61.2001 86.84C61.2002 86.84 61.2002 86.84 61.2002 86.84C61.2002 86.84 61.2002 86.84 61.2002 86.84C61.2002 86.84 61.2002 86.84 61.2003 86.84C61.2003 86.84 61.2003 86.84 61.2003 86.84C61.2003 86.84 61.2003 86.84 61.2004 86.84C61.2004 86.84 61.2004 86.84 61.2004 86.84C61.2004 86.84 61.2004 86.84 61.2005 86.84C61.2005 86.84 61.2005 86.84 61.2005 86.84C61.2005 86.84 61.2006 86.84 61.2006 86.84C61.2006 86.84 61.2006 86.84 61.2007 86.84C61.2007 86.84 61.2007 86.84 61.2007 86.84C61.2008 86.84 61.2008 86.84 61.2008 86.84C61.2008 86.84 61.2009 86.84 61.2009 86.84C61.2009 86.84 61.2009 86.84 61.201 86.84C61.201 86.84 61.201 86.84 61.201 86.84C61.2011 86.84 61.2011 86.84 61.2011 86.84C61.2012 86.84 61.2012 86.84 61.2012 86.84C61.2012 86.84 61.2013 86.84 61.2013 86.84C61.2013 86.84 61.2014 86.84 61.2014 86.84C61.2014 86.84 61.2015 86.84 61.2015 86.84C61.2015 86.84 61.2016 86.84 61.2016 86.84C61.2017 86.84 61.2017 86.84 61.2017 86.84C61.2018 86.84 61.2018 86.84 61.2018 86.84C61.2019 86.84 61.2019 86.84 61.202 86.84C61.202 86.84 61.202 86.84 61.2021 86.84C61.2021 86.84 61.2022 86.84 61.2022 86.84C61.2022 86.84 61.2023 86.84 61.2023 86.84C61.2024 86.84 61.2024 86.84 61.2024 86.84C61.2025 86.84 61.2025 86.84 61.2026 86.84C61.2026 86.84 61.2027 86.84 61.2027 86.84C61.2028 86.84 61.2028 86.84 61.2029 86.84C61.2029 86.84 61.2029 86.84 61.203 86.84C61.203 86.84 61.2031 86.84 61.2031 86.84C61.2032 86.84 61.2032 86.84 61.2033 86.84C61.2033 86.84 61.2034 86.84 61.2034 86.84C61.2035 86.84 61.2036 86.84 61.2036 86.84C61.2037 86.84 61.2037 86.84 61.2038 86.84C61.2038 86.84 61.2039 86.84 61.2039 86.84C61.204 86.84 61.204 86.84 61.2041 86.84C61.2041 86.84 61.2042 86.84 61.2043 86.84C61.2043 86.84 61.2044 86.84 61.2044 86.84C61.2045 86.84 61.2046 86.84 61.2046 86.84C61.2047 86.84 61.2047 86.84 61.2048 86.84C61.2048 86.84 61.2049 86.84 61.205 86.84C61.205 86.84 61.2051 86.84 61.2052 86.84C61.2052 86.84 61.2053 86.84 61.2053 86.84C61.2054 86.84 61.2055 86.84 61.2055 86.84C61.2056 86.84 61.2057 86.84 61.2057 86.84C61.2058 86.84 61.2059 86.84 61.2059 86.84C61.206 86.84 61.2061 86.84 61.2061 86.84C61.2062 86.84 61.2063 86.84 61.2063 86.84C61.2064 86.84 61.2065 86.84 61.2065 86.84C61.2066 86.84 61.2067 86.84 61.2068 86.84C61.2068 86.84 61.2069 86.84 61.207 86.84C61.207 86.84 61.2071 86.84 61.2072 86.84C61.2073 86.84 61.2073 86.84 61.2074 86.84C61.2075 86.84 61.2076 86.84 61.2076 86.84C61.2077 86.84 61.2078 86.84 61.2079 86.84C61.2079 86.84 61.208 86.84 61.2081 86.84C61.2082 86.84 61.2083 86.84 61.2083 86.84C61.2084 86.84 61.2085 86.84 61.2086 86.84C61.2086 86.84 61.2087 86.84 61.2088 86.84C61.2089 86.84 61.209 86.84 61.2091 86.84C61.2091 86.84 61.2092 86.84 61.2093 86.84C61.2094 86.84 61.2095 86.84 61.2095 86.84C61.2096 86.84 61.2097 86.84 61.2098 86.84C61.2099 86.84 61.21 86.84 61.2101 86.84C61.2101 86.84 61.2102 86.84 61.2103 86.84C61.2104 86.84 61.2105 86.84 61.2106 86.84C61.2107 86.84 61.2108 86.84 61.2108 86.84C61.2109 86.84 61.211 86.84 61.2111 86.84C61.2112 86.84 61.2113 86.84 61.2114 86.84C61.2115 86.84 61.2116 86.84 61.2117 86.84C61.2117 86.84 61.2118 86.84 61.2119 86.84C61.212 86.84 61.2121 86.84 61.2122 86.84C61.2123 86.84 61.2124 86.84 61.2125 86.84C61.2126 86.84 61.2127 86.84 61.2128 86.84C61.2129 86.84 61.213 86.84 61.2131 86.84C61.2132 86.84 61.2133 86.84 61.2134 86.84C61.2135 86.84 61.2136 86.84 61.2137 86.84C61.2138 86.84 61.2139 86.84 61.214 86.84C61.2141 86.84 61.2142 86.84 61.2143 86.84C61.2144 86.84 61.2145 86.84 61.2146 86.84C61.2147 86.84 61.2148 86.84 61.2149 86.84C61.215 86.84 61.2151 86.84 61.2152 86.84C61.2153 86.84 61.2154 86.84 61.2155 86.84C61.2156 86.84 61.2157 86.84 61.2158 86.84C61.2159 86.84 61.216 86.84 61.2161 86.84C61.2162 86.84 61.2164 86.84 61.2165 86.84C61.2166 86.84 61.2167 86.84 61.2168 86.84C61.2169 86.84 61.217 86.84 61.2171 86.84C61.2172 86.84 61.2173 86.84 61.2175 86.84C61.2176 86.84 61.2177 86.84 61.2178 86.84C61.2179 86.84 61.218 86.84 61.2181 86.84C61.2182 86.84 61.2184 86.84 61.2185 86.84C61.2186 86.84 61.2187 86.84 61.2188 86.84C61.2189 86.84 61.219 86.84 61.2192 86.84C61.2193 86.84 61.2194 86.84 61.2195 86.84C61.2196 86.84 61.2197 86.84 61.2199 86.84C61.22 86.84 61.2201 86.84 61.2202 86.84C61.2203 86.84 61.2205 86.84 61.2206 86.84C61.2207 86.84 61.2208 86.84 61.2209 86.84C61.2211 86.84 61.2212 86.84 61.2213 86.84C61.2214 86.84 61.2215 86.84 61.2217 86.84C61.2218 86.84 61.2219 86.84 61.222 86.84C61.2222 86.84 61.2223 86.84 61.2224 86.84C61.2225 86.84 61.2227 86.84 61.2228 86.84C61.2229 86.84 61.223 86.84 61.2232 86.84C61.2233 86.84 61.2234 86.84 61.2235 86.84C61.2237 86.84 61.2238 86.84 61.2239 86.84C61.2241 86.84 61.2242 86.84 61.2243 86.84C61.2244 86.84 61.2246 86.84 61.2247 86.84C61.2248 86.84 61.225 86.84 61.2251 86.84C61.2252 86.84 61.2254 86.84 61.2255 86.84C61.2256 86.84 61.2258 86.84 61.2259 86.84C61.226 86.84 61.2262 86.84 61.2263 86.84C61.2264 86.84 61.2266 86.84 61.2267 86.84C61.2268 86.84 61.227 86.84 61.2271 86.84C61.2272 86.84 61.2274 86.84 61.2275 86.84C61.2276 86.84 61.2278 86.84 61.2279 86.84C61.2281 86.84 61.2282 86.84 61.2283 86.84C61.2285 86.84 61.2286 86.84 61.2287 86.84C61.2289 86.84 61.229 86.84 61.2292 86.84C61.2293 86.84 61.2294 86.84 61.2296 86.84C61.2297 86.84 61.2299 86.84 61.23 86.84C61.2302 86.84 61.2303 86.84 61.2304 86.84C61.2306 86.84 61.2307 86.84 61.2309 86.84C61.231 86.84 61.2312 86.84 61.2313 86.84C61.2315 86.84 61.2316 86.84 61.2317 86.84C61.2319 86.84 61.232 86.84 61.2322 86.84C61.2323 86.84 61.2325 86.84 61.2326 86.84C61.2328 86.84 61.2329 86.84 61.2331 86.84C61.2332 86.84 61.2334 86.84 61.2335 86.84C61.2337 86.84 61.2338 86.84 61.234 86.84C61.2341 86.84 61.2343 86.84 61.2344 86.84C61.2346 86.84 61.2347 86.84 61.2349 86.84C61.235 86.84 61.2352 86.84 61.2353 86.84C61.2355 86.84 61.2356 86.84 61.2358 86.84C61.2359 86.84 61.2361 86.84 61.2362 86.84C61.2364 86.84 61.2366 86.84 61.2367 86.84C61.2369 86.84 61.237 86.84 61.2372 86.84C61.2373 86.84 61.2375 86.84 61.2376 86.84C61.2378 86.84 61.238 86.84 61.2381 86.84C61.2383 86.84 61.2384 86.84 61.2386 86.84C61.2388 86.84 61.2389 86.84 61.2391 86.84C61.2392 86.84 61.2394 86.84 61.2396 86.84C61.2397 86.84 61.2399 86.84 61.24 86.84C61.2402 86.84 61.2404 86.84 61.2405 86.84C61.2407 86.84 61.2409 86.84 61.241 86.84C61.2412 86.84 61.2413 86.84 61.2415 86.84C61.2417 86.84 61.2418 86.84 61.242 86.84C61.2422 86.84 61.2423 86.84 61.2425 86.84C61.2427 86.84 61.2428 86.84 61.243 86.84C61.2432 86.84 61.2433 86.84 61.2435 86.84C61.2437 86.84 61.2438 86.84 61.244 86.84C61.2442 86.84 61.2443 86.84 61.2445 86.84C61.2447 86.84 61.2448 86.84 61.245 86.84C61.2452 86.84 61.2453 86.84 61.2455 86.84C61.2457 86.84 61.2459 86.84 61.246 86.84C61.2462 86.84 61.2464 86.84 61.2465 86.84C61.2467 86.84 61.2469 86.84 61.2471 86.84C61.2472 86.84 61.2474 86.84 61.2476 86.84C61.2478 86.84 61.2479 86.84 61.2481 86.84C61.2483 86.84 61.2485 86.84 61.2486 86.84C61.2488 86.84 61.249 86.84 61.2492 86.84C61.2493 86.84 61.2495 86.84 61.2497 86.84C61.2499 86.84 61.25 86.84 61.2502 86.84C61.2504 86.84 61.2506 86.84 61.2508 86.84C61.2509 86.84 61.2511 86.84 61.2513 86.84C61.2515 86.84 61.2517 86.84 61.2518 86.84C61.252 86.84 61.2522 86.84 61.2524 86.84C61.2526 86.84 61.2527 86.84 61.2529 86.84C61.2531 86.84 61.2533 86.84 61.2535 86.84C61.2537 86.84 61.2538 86.84 61.254 86.84C61.2542 86.84 61.2544 86.84 61.2546 86.84C61.2548 86.84 61.2549 86.84 61.2551 86.84C61.2553 86.84 61.2555 86.84 61.2557 86.84C61.2559 86.84 61.2561 86.84 61.2562 86.84C61.2564 86.84 61.2566 86.84 61.2568 86.84C61.257 86.84 61.2572 86.84 61.2574 86.84C61.2576 86.84 61.2577 86.84 61.2579 86.84C61.2581 86.84 61.2583 86.84 61.2585 86.84C61.2587 86.84 61.2589 86.84 61.2591 86.84C61.2593 86.84 61.2594 86.84 61.2596 86.84C61.2598 86.84 61.26 86.84 61.2602 86.84C61.2604 86.84 61.2606 86.84 61.2608 86.84C61.261 86.84 61.2612 86.84 61.2614 86.84C61.2616 86.84 61.2618 86.84 61.2619 86.84C61.2621 86.84 61.2623 86.84 61.2625 86.84C61.2627 86.84 61.2629 86.84 61.2631 86.84C61.2633 86.84 61.2635 86.84 61.2637 86.84C61.2639 86.84 61.2641 86.84 61.2643 86.84C61.2645 86.84 61.2647 86.84 61.2649 86.84C61.2651 86.84 61.2653 86.84 61.2655 86.84C61.2657 86.84 61.2659 86.84 61.2661 86.84C61.2663 86.84 61.2665 86.84 61.2667 86.84C61.2669 86.84 61.2671 86.84 61.2673 86.84C61.2675 86.84 61.2677 86.84 61.2679 86.84C61.2681 86.84 61.2683 86.84 61.2685 86.84C61.2687 86.84 61.2689 86.84 61.2691 86.84C61.2693 86.84 61.2695 86.84 61.2697 86.84C61.2699 86.84 61.2701 86.84 61.2703 86.84C61.2705 86.84 61.2707 86.84 61.2709 86.84C61.2711 86.84 61.2713 86.84 61.2716 86.84C61.2718 86.84 61.272 86.84 61.2722 86.84C61.2724 86.84 61.2726 86.84 61.2728 86.84C61.273 86.84 61.2732 86.84 61.2734 86.84C61.2736 86.84 61.2738 86.84 61.274 86.84C61.2743 86.84 61.2745 86.84 61.2747 86.84C61.2749 86.84 61.2751 86.84 61.2753 86.84C61.2755 86.84 61.2757 86.84 61.2759 86.84C61.2761 86.84 61.2764 86.84 61.2766 86.84C61.2768 86.84 61.277 86.84 61.2772 86.84C61.2774 86.84 61.2776 86.84 61.2778 86.84C61.2781 86.84 61.2783 86.84 61.2785 86.84C61.2787 86.84 61.2789 86.84 61.2791 86.84C61.2793 86.84 61.2795 86.84 61.2798 86.84C61.28 86.84 61.2802 86.84 61.2804 86.84C61.2806 86.84 61.2808 86.84 61.2811 86.84C61.2813 86.84 61.2815 86.84 61.2817 86.84C61.2819 86.84 61.2821 86.84 61.2824 86.84C61.2826 86.84 61.2828 86.84 61.283 86.84C61.2832 86.84 61.2835 86.84 61.2837 86.84C61.2839 86.84 61.2841 86.84 61.2843 86.84C61.2846 86.84 61.2848 86.84 61.285 86.84C61.2852 86.84 61.2854 86.84 61.2857 86.84C61.2859 86.84 61.2861 86.84 61.2863 86.84C61.2865 86.84 61.2868 86.84 61.287 86.84C61.2872 86.84 61.2874 86.84 61.2877 86.84C61.2879 86.84 61.2881 86.84 61.2883 86.84C61.2885 86.84 61.2888 86.84 61.289 86.84C61.2892 86.84 61.2894 86.84 61.2897 86.84C61.2899 86.84 61.2901 86.84 61.2903 86.84C61.2906 86.84 61.2908 86.84 61.291 86.84C61.2912 86.84 61.2915 86.84 61.2917 86.84C61.2919 86.84 61.2922 86.84 61.2924 86.84C61.2926 86.84 61.2928 86.84 61.2931 86.84C61.2933 86.84 61.2935 86.84 61.2937 86.84C61.294 86.84 61.2942 86.84 61.2944 86.84C61.2947 86.84 61.2949 86.84 61.2951 86.84C61.2954 86.84 61.2956 86.84 61.2958 86.84C61.2961 86.84 61.2963 86.84 61.2965 86.84C61.2967 86.84 61.297 86.84 61.2972 86.84C61.2974 86.84 61.2977 86.84 61.2979 86.84C61.2981 86.84 61.2984 86.84 61.2986 86.84C61.2988 86.84 61.2991 86.84 61.2993 86.84C61.2995 86.84 61.2998 86.84 61.3 86.84C61.3002 86.84 61.3005 86.84 61.3007 86.84C61.3009 86.84 61.3012 86.84 61.3014 86.84C61.3017 86.84 61.3019 86.84 61.3021 86.84C61.3024 86.84 61.3026 86.84 61.3028 86.84C61.3031 86.84 61.3033 86.84 61.3035 86.84C61.3038 86.84 61.304 86.84 61.3043 86.84C61.3045 86.84 61.3047 86.84 61.305 86.84C61.3052 86.84 61.3055 86.84 61.3057 86.84C61.3059 86.84 61.3062 86.84 61.3064 86.84C61.3066 86.84 61.3069 86.84 61.3071 86.84C61.3074 86.84 61.3076 86.84 61.3078 86.84C61.3081 86.84 61.3083 86.84 61.3086 86.84C61.3088 86.84 61.3091 86.84 61.3093 86.84C61.3095 86.84 61.3098 86.84 61.31 86.84C61.3103 86.84 61.3105 86.84 61.3108 86.84C61.311 86.84 61.3112 86.84 61.3115 86.84C61.3117 86.84 61.312 86.84 61.3122 86.84C61.3125 86.84 61.3127 86.84 61.313 86.84C61.3132 86.84 61.3134 86.84 61.3137 86.84C61.3139 86.84 61.3142 86.84 61.3144 86.84C61.3147 86.84 61.3149 86.84 61.3152 86.84C61.3154 86.84 61.3157 86.84 61.3159 86.84C61.3161 86.84 61.3164 86.84 61.3166 86.84C61.3169 86.84 61.3171 86.84 61.3174 86.84C61.3176 86.84 61.3179 86.84 61.3181 86.84C61.3184 86.84 61.3186 86.84 61.3189 86.84C61.3191 86.84 61.3194 86.84 61.3196 86.84C61.3199 86.84 61.3201 86.84 61.3204 86.84C61.3206 86.84 61.3209 86.84 61.3211 86.84C61.3214 86.84 61.3216 86.84 61.3219 86.84C61.3221 86.84 61.3224 86.84 61.3226 86.84C61.3229 86.84 61.3232 86.84 61.3234 86.84C61.3237 86.84 61.3239 86.84 61.3242 86.84C61.3244 86.84 61.3247 86.84 61.3249 86.84C61.3252 86.84 61.3254 86.84 61.3257 86.84C61.3259 86.84 61.3262 86.84 61.3264 86.84C61.3267 86.84 61.327 86.84 61.3272 86.84C61.3275 86.84 61.3277 86.84 61.328 86.84C61.3282 86.84 61.3285 86.84 61.3288 86.84C61.329 86.84 61.3293 86.84 61.3295 86.84C61.3298 86.84 61.33 86.84 61.3303 86.84C61.3305 86.84 61.3308 86.84 61.3311 86.84C61.3313 86.84 61.3316 86.84 61.3318 86.84C61.3321 86.84 61.3324 86.84 61.3326 86.84C61.3329 86.84 61.3331 86.84 61.3334 86.84C61.3336 86.84 61.3339 86.84 61.3342 86.84C61.3344 86.84 61.3347 86.84 61.3349 86.84C61.3352 86.84 61.3355 86.84 61.3357 86.84C61.336 86.84 61.3363 86.84 61.3365 86.84C61.3368 86.84 61.337 86.84 61.3373 86.84C61.3376 86.84 61.3378 86.84 61.3381 86.84C61.3383 86.84 61.3386 86.84 61.3389 86.84C61.3391 86.84 61.3394 86.84 61.3397 86.84C61.3399 86.84 61.3402 86.84 61.3405 86.84C61.3407 86.84 61.341 86.84 61.3412 86.84C61.3415 86.84 61.3418 86.84 61.342 86.84C61.3423 86.84 61.3426 86.84 61.3428 86.84C61.3431 86.84 61.3434 86.84 61.3436 86.84C61.3439 86.84 61.3442 86.84 61.3444 86.84C61.3447 86.84 61.345 86.84 61.3452 86.84C61.3455 86.84 61.3458 86.84 61.346 86.84C61.3463 86.84 61.3466 86.84 61.3468 86.84C61.3471 86.84 61.3474 86.84 61.3476 86.84C61.3479 86.84 61.3482 86.84 61.3484 86.84C61.3487 86.84 61.349 86.84 61.3493 86.84C61.3495 86.84 61.3498 86.84 61.3501 86.84C61.3503 86.84 61.3506 86.84 61.3509 86.84C61.3511 86.84 61.3514 86.84 61.3517 86.84C61.3519 86.84 61.3522 86.84 61.3525 86.84C61.3528 86.84 61.353 86.84 61.3533 86.84C61.3536 86.84 61.3538 86.84 61.3541 86.84C61.3544 86.84 61.3547 86.84 61.3549 86.84C61.3552 86.84 61.3555 86.84 61.3558 86.84C61.356 86.84 61.3563 86.84 61.3566 86.84C61.3568 86.84 61.3571 86.84 61.3574 86.84C61.3577 86.84 61.3579 86.84 61.3582 86.84C61.3585 86.84 61.3588 86.84 61.359 86.84C61.3593 86.84 61.3596 86.84 61.3599 86.84C61.3601 86.84 61.3604 86.84 61.3607 86.84C61.361 86.84 61.3612 86.84 61.3615 86.84C61.3618 86.84 61.3621 86.84 61.3623 86.84C61.3626 86.84 61.3629 86.84 61.3632 86.84C61.3634 86.84 61.3637 86.84 61.364 86.84C61.3643 86.84 61.3645 86.84 61.3648 86.84C61.3651 86.84 61.3654 86.84 61.3657 86.84C61.3659 86.84 61.3662 86.84 61.3665 86.84C61.3668 86.84 61.367 86.84 61.3673 86.84C61.3676 86.84 61.3679 86.84 61.3682 86.84C61.3684 86.84 61.3687 86.84 61.369 86.84C61.3693 86.84 61.3696 86.84 61.3698 86.84C61.3701 86.84 61.3704 86.84 61.3707 86.84C61.3709 86.84 61.3712 86.84 61.3715 86.84C61.3718 86.84 61.3721 86.84 61.3724 86.84C61.3726 86.84 61.3729 86.84 61.3732 86.84C61.3735 86.84 61.3738 86.84 61.374 86.84C61.3743 86.84 61.3746 86.84 61.3749 86.84C61.3752 86.84 61.3755 86.84 61.3757 86.84C61.376 86.84 61.3763 86.84 61.3766 86.84C61.3769 86.84 61.3771 86.84 61.3774 86.84C61.3777 86.84 61.378 86.84 61.3783 86.84C61.3786 86.84 61.3788 86.84 61.3791 86.84C61.3794 86.84 61.3797 86.84 61.38 86.84C61.3803 86.84 61.3806 86.84 61.3808 86.84C61.3811 86.84 61.3814 86.84 61.3817 86.84C61.382 86.84 61.3823 86.84 61.3825 86.84C61.3828 86.84 61.3831 86.84 61.3834 86.84C61.3837 86.84 61.384 86.84 61.3843 86.84C61.3845 86.84 61.3848 86.84 61.3851 86.84C61.3854 86.84 61.3857 86.84 61.386 86.84C61.3863 86.84 61.3866 86.84 61.3868 86.84C61.3871 86.84 61.3874 86.84 61.3877 86.84C61.388 86.84 61.3883 86.84 61.3886 86.84C61.3889 86.84 61.3891 86.84 61.3894 86.84C61.3897 86.84 61.39 86.84 61.3903 86.84C61.3906 86.84 61.3909 86.84 61.3912 86.84C61.3914 86.84 61.3917 86.84 61.392 86.84C61.3923 86.84 61.3926 86.84 61.3929 86.84C61.3932 86.84 61.3935 86.84 61.3938 86.84C61.3941 86.84 61.3943 86.84 61.3946 86.84C61.3949 86.84 61.3952 86.84 61.3955 86.84C61.3958 86.84 61.3961 86.84 61.3964 86.84C61.3967 86.84 61.397 86.84 61.3972 86.84C61.3975 86.84 61.3978 86.84 61.3981 86.84C61.3984 86.84 61.3987 86.84 61.399 86.84C61.3993 86.84 61.3996 86.84 61.3999 86.84C61.4002 86.84 61.4005 86.84 61.4007 86.84C61.401 86.84 61.4013 86.84 61.4016 86.84C61.4019 86.84 61.4022 86.84 61.4025 86.84C61.4028 86.84 61.4031 86.84 61.4034 86.84C61.4037 86.84 61.404 86.84 61.4043 86.84C61.4046 86.84 61.4049 86.84 61.4051 86.84C61.4054 86.84 61.4057 86.84 61.406 86.84C61.4063 86.84 61.4066 86.84 61.4069 86.84C61.4072 86.84 61.4075 86.84 61.4078 86.84C61.4081 86.84 61.4084 86.84 61.4087 86.84C61.409 86.84 61.4093 86.84 61.4096 86.84C61.4099 86.84 61.4102 86.84 61.4105 86.84C61.4107 86.84 61.411 86.84 61.4113 86.84C61.4116 86.84 61.4119 86.84 61.4122 86.84C61.4125 86.84 61.4128 86.84 61.4131 86.84C61.4134 86.84 61.4137 86.84 61.414 86.84C61.4143 86.84 61.4146 86.84 61.4149 86.84C61.4152 86.84 61.4155 86.84 61.4158 86.84C61.4161 86.84 61.4164 86.84 61.4167 86.84C61.417 86.84 61.4173 86.84 61.4176 86.84C61.4179 86.84 61.4182 86.84 61.4185 86.84C61.4188 86.84 61.4191 86.84 61.4194 86.84C61.4197 86.84 61.42 86.84 61.4203 86.84C61.4206 86.84 61.4209 86.84 61.4212 86.84C61.4214 86.84 61.4218 86.84 61.4221 86.84C61.4223 86.84 61.4226 86.84 61.4229 86.84C61.4232 86.84 61.4235 86.84 61.4238 86.84C61.4241 86.84 61.4244 86.84 61.4247 86.84C61.425 86.84 61.4253 86.84 61.4256 86.84C61.4259 86.84 61.4262 86.84 61.4265 86.84C61.4268 86.84 61.4271 86.84 61.4274 86.84C61.4277 86.84 61.428 86.84 61.4283 86.84C61.4286 86.84 61.4289 86.84 61.4293 86.84C61.4296 86.84 61.4299 86.84 61.4302 86.84C61.4305 86.84 61.4308 86.84 61.4311 86.84C61.4314 86.84 61.4317 86.84 61.432 86.84C61.4323 86.84 61.4326 86.84 61.4329 86.84C61.4332 86.84 61.4335 86.84 61.4338 86.84C61.4341 86.84 61.4344 86.84 61.4347 86.84C61.435 86.84 61.4353 86.84 61.4356 86.84C61.4359 86.84 61.4362 86.84 61.4365 86.84C61.4368 86.84 61.4371 86.84 61.4374 86.84C61.4377 86.84 61.438 86.84 61.4383 86.84C61.4386 86.84 61.4389 86.84 61.4392 86.84C61.4395 86.84 61.4398 86.84 61.4401 86.84C61.4404 86.84 61.4407 86.84 61.441 86.84C61.4414 86.84 61.4417 86.84 61.442 86.84C61.4423 86.84 61.4426 86.84 61.4429 86.84C61.4432 86.84 61.4435 86.84 61.4438 86.84C61.4441 86.84 61.4444 86.84 61.4447 86.84C61.445 86.84 61.4453 86.84 61.4456 86.84C61.4459 86.84 61.4462 86.84 61.4465 86.84C61.4468 86.84 61.4471 86.84 61.4474 86.84C61.4477 86.84 61.4481 86.84 61.4484 86.84C61.4487 86.84 61.449 86.84 61.4493 86.84C61.4496 86.84 61.4499 86.84 61.4502 86.84C61.4505 86.84 61.4508 86.84 61.4511 86.84C61.4514 86.84 61.4517 86.84 61.452 86.84C61.4523 86.84 61.4526 86.84 61.4529 86.84C61.4533 86.84 61.4536 86.84 61.4539 86.84C61.4542 86.84 61.4545 86.84 61.4548 86.84C61.4551 86.84 61.4554 86.84 61.4557 86.84C61.456 86.84 61.4563 86.84 61.4566 86.84C61.4569 86.84 61.4572 86.84 61.4576 86.84C61.4579 86.84 61.4582 86.84 61.4585 86.84C61.4588 86.84 61.4591 86.84 61.4594 86.84C61.4597 86.84 61.46 86.84 61.4603 86.84C61.4606 86.84 61.4609 86.84 61.4612 86.84C61.4615 86.84 61.4619 86.84 61.4622 86.84C61.4625 86.84 61.4628 86.84 61.4631 86.84C61.4634 86.84 61.4637 86.84 61.464 86.84C61.4643 86.84 61.4646 86.84 61.4649 86.84C61.4652 86.84 61.4656 86.84 61.4659 86.84C61.4662 86.84 61.4665 86.84 61.4668 86.84C61.4671 86.84 61.4674 86.84 61.4677 86.84C61.468 86.84 61.4683 86.84 61.4686 86.84C61.4689 86.84 61.4693 86.84 61.4696 86.84C61.4699 86.84 61.4702 86.84 61.4705 86.84C61.4708 86.84 61.4711 86.84 61.4714 86.84C61.4717 86.84 61.472 86.84 61.4724 86.84C61.4727 86.84 61.473 86.84 61.4733 86.84C61.4736 86.84 61.4739 86.84 61.4742 86.84C61.4745 86.84 61.4748 86.84 61.4751 86.84C61.4754 86.84 61.4758 86.84 61.4761 86.84C61.4764 86.84 61.4767 86.84 61.477 86.84C61.4773 86.84 61.4776 86.84 61.4779 86.84C61.4782 86.84 61.4785 86.84 61.4789 86.84C61.4792 86.84 61.4795 86.84 61.4798 86.84C61.4801 86.84 61.4804 86.84 61.4807 86.84C61.481 86.84 61.4813 86.84 61.4817 86.84C61.482 86.84 61.4823 86.84 61.4826 86.84C61.4829 86.84 61.4832 86.84 61.4835 86.84C61.4838 86.84 61.4841 86.84 61.4844 86.84C61.4848 86.84 61.4851 86.84 61.4854 86.84C61.4857 86.84 61.486 86.84 61.4863 86.84C61.4866 86.84 61.4869 86.84 61.4872 86.84C61.4876 86.84 61.4879 86.84 61.4882 86.84C61.4885 86.84 61.4888 86.84 61.4891 86.84C61.4894 86.84 61.4897 86.84 61.49 86.84C61.4904 86.84 61.4907 86.84 61.491 86.84C61.4913 86.84 61.4916 86.84 61.4919 86.84C61.4922 86.84 61.4925 86.84 61.4928 86.84C61.4932 86.84 61.4935 86.84 61.4938 86.84C61.4941 86.84 61.4944 86.84 61.4947 86.84C61.495 86.84 61.4953 86.84 61.4957 86.84C61.496 86.84 61.4963 86.84 61.4966 86.84C61.4969 86.84 61.4972 86.84 61.4975 86.84C61.4978 86.84 61.4981 86.84 61.4985 86.84C61.4988 86.84 61.4991 86.84 61.4994 86.84C61.4997 86.84 61.5 86.84 61.5003 86.84C61.5006 86.84 61.501 86.84 61.5013 86.84C61.5016 86.84 61.5019 86.84 61.5022 86.84C61.5025 86.84 61.5028 86.84 61.5031 86.84C61.5034 86.84 61.5038 86.84 61.5041 86.84C61.5044 86.84 61.5047 86.84 61.505 86.84C61.5053 86.84 61.5056 86.84 61.5059 86.84C61.5063 86.84 61.5066 86.84 61.5069 86.84C61.5072 86.84 61.5075 86.84 61.5078 86.84C61.5081 86.84 61.5084 86.84 61.5088 86.84C61.5091 86.84 61.5094 86.84 61.5097 86.84C61.51 86.84 61.5103 86.84 61.5106 86.84C61.5109 86.84 61.5113 86.84 61.5116 86.84C61.5119 86.84 61.5122 86.84 61.5125 86.84C61.5128 86.84 61.5131 86.84 61.5134 86.84C61.5138 86.84 61.5141 86.84 61.5144 86.84C61.5147 86.84 61.515 86.84 61.5153 86.84C61.5156 86.84 61.5159 86.84 61.5163 86.84C61.5166 86.84 61.5169 86.84 61.5172 86.84C61.5175 86.84 61.5178 86.84 61.5181 86.84C61.5184 86.84 61.5188 86.84 61.5191 86.84C61.5194 86.84 61.5197 86.84 61.52 86.84V82.84C61.5197 82.84 61.5194 82.84 61.5191 82.84C61.5188 82.84 61.5184 82.84 61.5181 82.84C61.5178 82.84 61.5175 82.84 61.5172 82.84C61.5169 82.84 61.5166 82.84 61.5163 82.84C61.5159 82.84 61.5156 82.84 61.5153 82.84C61.515 82.84 61.5147 82.84 61.5144 82.84C61.5141 82.84 61.5138 82.84 61.5134 82.84C61.5131 82.84 61.5128 82.84 61.5125 82.84C61.5122 82.84 61.5119 82.84 61.5116 82.84C61.5113 82.84 61.5109 82.84 61.5106 82.84C61.5103 82.84 61.51 82.84 61.5097 82.84C61.5094 82.84 61.5091 82.84 61.5088 82.84C61.5084 82.84 61.5081 82.84 61.5078 82.84C61.5075 82.84 61.5072 82.84 61.5069 82.84C61.5066 82.84 61.5063 82.84 61.5059 82.84C61.5056 82.84 61.5053 82.84 61.505 82.84C61.5047 82.84 61.5044 82.84 61.5041 82.84C61.5038 82.84 61.5034 82.84 61.5031 82.84C61.5028 82.84 61.5025 82.84 61.5022 82.84C61.5019 82.84 61.5016 82.84 61.5013 82.84C61.501 82.84 61.5006 82.84 61.5003 82.84C61.5 82.84 61.4997 82.84 61.4994 82.84C61.4991 82.84 61.4988 82.84 61.4985 82.84C61.4981 82.84 61.4978 82.84 61.4975 82.84C61.4972 82.84 61.4969 82.84 61.4966 82.84C61.4963 82.84 61.496 82.84 61.4957 82.84C61.4953 82.84 61.495 82.84 61.4947 82.84C61.4944 82.84 61.4941 82.84 61.4938 82.84C61.4935 82.84 61.4932 82.84 61.4928 82.84C61.4925 82.84 61.4922 82.84 61.4919 82.84C61.4916 82.84 61.4913 82.84 61.491 82.84C61.4907 82.84 61.4904 82.84 61.49 82.84C61.4897 82.84 61.4894 82.84 61.4891 82.84C61.4888 82.84 61.4885 82.84 61.4882 82.84C61.4879 82.84 61.4876 82.84 61.4872 82.84C61.4869 82.84 61.4866 82.84 61.4863 82.84C61.486 82.84 61.4857 82.84 61.4854 82.84C61.4851 82.84 61.4848 82.84 61.4844 82.84C61.4841 82.84 61.4838 82.84 61.4835 82.84C61.4832 82.84 61.4829 82.84 61.4826 82.84C61.4823 82.84 61.482 82.84 61.4817 82.84C61.4813 82.84 61.481 82.84 61.4807 82.84C61.4804 82.84 61.4801 82.84 61.4798 82.84C61.4795 82.84 61.4792 82.84 61.4789 82.84C61.4785 82.84 61.4782 82.84 61.4779 82.84C61.4776 82.84 61.4773 82.84 61.477 82.84C61.4767 82.84 61.4764 82.84 61.4761 82.84C61.4758 82.84 61.4754 82.84 61.4751 82.84C61.4748 82.84 61.4745 82.84 61.4742 82.84C61.4739 82.84 61.4736 82.84 61.4733 82.84C61.473 82.84 61.4727 82.84 61.4724 82.84C61.472 82.84 61.4717 82.84 61.4714 82.84C61.4711 82.84 61.4708 82.84 61.4705 82.84C61.4702 82.84 61.4699 82.84 61.4696 82.84C61.4693 82.84 61.4689 82.84 61.4686 82.84C61.4683 82.84 61.468 82.84 61.4677 82.84C61.4674 82.84 61.4671 82.84 61.4668 82.84C61.4665 82.84 61.4662 82.84 61.4659 82.84C61.4656 82.84 61.4652 82.84 61.4649 82.84C61.4646 82.84 61.4643 82.84 61.464 82.84C61.4637 82.84 61.4634 82.84 61.4631 82.84C61.4628 82.84 61.4625 82.84 61.4622 82.84C61.4619 82.84 61.4615 82.84 61.4612 82.84C61.4609 82.84 61.4606 82.84 61.4603 82.84C61.46 82.84 61.4597 82.84 61.4594 82.84C61.4591 82.84 61.4588 82.84 61.4585 82.84C61.4582 82.84 61.4579 82.84 61.4576 82.84C61.4572 82.84 61.4569 82.84 61.4566 82.84C61.4563 82.84 61.456 82.84 61.4557 82.84C61.4554 82.84 61.4551 82.84 61.4548 82.84C61.4545 82.84 61.4542 82.84 61.4539 82.84C61.4536 82.84 61.4533 82.84 61.4529 82.84C61.4526 82.84 61.4523 82.84 61.452 82.84C61.4517 82.84 61.4514 82.84 61.4511 82.84C61.4508 82.84 61.4505 82.84 61.4502 82.84C61.4499 82.84 61.4496 82.84 61.4493 82.84C61.449 82.84 61.4487 82.84 61.4484 82.84C61.4481 82.84 61.4477 82.84 61.4474 82.84C61.4471 82.84 61.4468 82.84 61.4465 82.84C61.4462 82.84 61.4459 82.84 61.4456 82.84C61.4453 82.84 61.445 82.84 61.4447 82.84C61.4444 82.84 61.4441 82.84 61.4438 82.84C61.4435 82.84 61.4432 82.84 61.4429 82.84C61.4426 82.84 61.4423 82.84 61.442 82.84C61.4417 82.84 61.4414 82.84 61.441 82.84C61.4407 82.84 61.4404 82.84 61.4401 82.84C61.4398 82.84 61.4395 82.84 61.4392 82.84C61.4389 82.84 61.4386 82.84 61.4383 82.84C61.438 82.84 61.4377 82.84 61.4374 82.84C61.4371 82.84 61.4368 82.84 61.4365 82.84C61.4362 82.84 61.4359 82.84 61.4356 82.84C61.4353 82.84 61.435 82.84 61.4347 82.84C61.4344 82.84 61.4341 82.84 61.4338 82.84C61.4335 82.84 61.4332 82.84 61.4329 82.84C61.4326 82.84 61.4323 82.84 61.432 82.84C61.4317 82.84 61.4314 82.84 61.4311 82.84C61.4308 82.84 61.4305 82.84 61.4302 82.84C61.4299 82.84 61.4296 82.84 61.4293 82.84C61.4289 82.84 61.4286 82.84 61.4283 82.84C61.428 82.84 61.4277 82.84 61.4274 82.84C61.4271 82.84 61.4268 82.84 61.4265 82.84C61.4262 82.84 61.4259 82.84 61.4256 82.84C61.4253 82.84 61.425 82.84 61.4247 82.84C61.4244 82.84 61.4241 82.84 61.4238 82.84C61.4235 82.84 61.4232 82.84 61.4229 82.84C61.4226 82.84 61.4223 82.84 61.4221 82.84C61.4218 82.84 61.4214 82.84 61.4212 82.84C61.4209 82.84 61.4206 82.84 61.4203 82.84C61.42 82.84 61.4197 82.84 61.4194 82.84C61.4191 82.84 61.4188 82.84 61.4185 82.84C61.4182 82.84 61.4179 82.84 61.4176 82.84C61.4173 82.84 61.417 82.84 61.4167 82.84C61.4164 82.84 61.4161 82.84 61.4158 82.84C61.4155 82.84 61.4152 82.84 61.4149 82.84C61.4146 82.84 61.4143 82.84 61.414 82.84C61.4137 82.84 61.4134 82.84 61.4131 82.84C61.4128 82.84 61.4125 82.84 61.4122 82.84C61.4119 82.84 61.4116 82.84 61.4113 82.84C61.411 82.84 61.4107 82.84 61.4105 82.84C61.4102 82.84 61.4099 82.84 61.4096 82.84C61.4093 82.84 61.409 82.84 61.4087 82.84C61.4084 82.84 61.4081 82.84 61.4078 82.84C61.4075 82.84 61.4072 82.84 61.4069 82.84C61.4066 82.84 61.4063 82.84 61.406 82.84C61.4057 82.84 61.4054 82.84 61.4051 82.84C61.4049 82.84 61.4046 82.84 61.4043 82.84C61.404 82.84 61.4037 82.84 61.4034 82.84C61.4031 82.84 61.4028 82.84 61.4025 82.84C61.4022 82.84 61.4019 82.84 61.4016 82.84C61.4013 82.84 61.401 82.84 61.4007 82.84C61.4005 82.84 61.4002 82.84 61.3999 82.84C61.3996 82.84 61.3993 82.84 61.399 82.84C61.3987 82.84 61.3984 82.84 61.3981 82.84C61.3978 82.84 61.3975 82.84 61.3972 82.84C61.397 82.84 61.3967 82.84 61.3964 82.84C61.3961 82.84 61.3958 82.84 61.3955 82.84C61.3952 82.84 61.3949 82.84 61.3946 82.84C61.3943 82.84 61.3941 82.84 61.3938 82.84C61.3935 82.84 61.3932 82.84 61.3929 82.84C61.3926 82.84 61.3923 82.84 61.392 82.84C61.3917 82.84 61.3914 82.84 61.3912 82.84C61.3909 82.84 61.3906 82.84 61.3903 82.84C61.39 82.84 61.3897 82.84 61.3894 82.84C61.3891 82.84 61.3889 82.84 61.3886 82.84C61.3883 82.84 61.388 82.84 61.3877 82.84C61.3874 82.84 61.3871 82.84 61.3868 82.84C61.3866 82.84 61.3863 82.84 61.386 82.84C61.3857 82.84 61.3854 82.84 61.3851 82.84C61.3848 82.84 61.3845 82.84 61.3843 82.84C61.384 82.84 61.3837 82.84 61.3834 82.84C61.3831 82.84 61.3828 82.84 61.3825 82.84C61.3823 82.84 61.382 82.84 61.3817 82.84C61.3814 82.84 61.3811 82.84 61.3808 82.84C61.3806 82.84 61.3803 82.84 61.38 82.84C61.3797 82.84 61.3794 82.84 61.3791 82.84C61.3788 82.84 61.3786 82.84 61.3783 82.84C61.378 82.84 61.3777 82.84 61.3774 82.84C61.3771 82.84 61.3769 82.84 61.3766 82.84C61.3763 82.84 61.376 82.84 61.3757 82.84C61.3755 82.84 61.3752 82.84 61.3749 82.84C61.3746 82.84 61.3743 82.84 61.374 82.84C61.3738 82.84 61.3735 82.84 61.3732 82.84C61.3729 82.84 61.3726 82.84 61.3724 82.84C61.3721 82.84 61.3718 82.84 61.3715 82.84C61.3712 82.84 61.3709 82.84 61.3707 82.84C61.3704 82.84 61.3701 82.84 61.3698 82.84C61.3696 82.84 61.3693 82.84 61.369 82.84C61.3687 82.84 61.3684 82.84 61.3682 82.84C61.3679 82.84 61.3676 82.84 61.3673 82.84C61.367 82.84 61.3668 82.84 61.3665 82.84C61.3662 82.84 61.3659 82.84 61.3657 82.84C61.3654 82.84 61.3651 82.84 61.3648 82.84C61.3645 82.84 61.3643 82.84 61.364 82.84C61.3637 82.84 61.3634 82.84 61.3632 82.84C61.3629 82.84 61.3626 82.84 61.3623 82.84C61.3621 82.84 61.3618 82.84 61.3615 82.84C61.3612 82.84 61.361 82.84 61.3607 82.84C61.3604 82.84 61.3601 82.84 61.3599 82.84C61.3596 82.84 61.3593 82.84 61.359 82.84C61.3588 82.84 61.3585 82.84 61.3582 82.84C61.3579 82.84 61.3577 82.84 61.3574 82.84C61.3571 82.84 61.3568 82.84 61.3566 82.84C61.3563 82.84 61.356 82.84 61.3558 82.84C61.3555 82.84 61.3552 82.84 61.3549 82.84C61.3547 82.84 61.3544 82.84 61.3541 82.84C61.3538 82.84 61.3536 82.84 61.3533 82.84C61.353 82.84 61.3528 82.84 61.3525 82.84C61.3522 82.84 61.3519 82.84 61.3517 82.84C61.3514 82.84 61.3511 82.84 61.3509 82.84C61.3506 82.84 61.3503 82.84 61.3501 82.84C61.3498 82.84 61.3495 82.84 61.3493 82.84C61.349 82.84 61.3487 82.84 61.3484 82.84C61.3482 82.84 61.3479 82.84 61.3476 82.84C61.3474 82.84 61.3471 82.84 61.3468 82.84C61.3466 82.84 61.3463 82.84 61.346 82.84C61.3458 82.84 61.3455 82.84 61.3452 82.84C61.345 82.84 61.3447 82.84 61.3444 82.84C61.3442 82.84 61.3439 82.84 61.3436 82.84C61.3434 82.84 61.3431 82.84 61.3428 82.84C61.3426 82.84 61.3423 82.84 61.342 82.84C61.3418 82.84 61.3415 82.84 61.3412 82.84C61.341 82.84 61.3407 82.84 61.3405 82.84C61.3402 82.84 61.3399 82.84 61.3397 82.84C61.3394 82.84 61.3391 82.84 61.3389 82.84C61.3386 82.84 61.3383 82.84 61.3381 82.84C61.3378 82.84 61.3376 82.84 61.3373 82.84C61.337 82.84 61.3368 82.84 61.3365 82.84C61.3363 82.84 61.336 82.84 61.3357 82.84C61.3355 82.84 61.3352 82.84 61.3349 82.84C61.3347 82.84 61.3344 82.84 61.3342 82.84C61.3339 82.84 61.3336 82.84 61.3334 82.84C61.3331 82.84 61.3329 82.84 61.3326 82.84C61.3324 82.84 61.3321 82.84 61.3318 82.84C61.3316 82.84 61.3313 82.84 61.3311 82.84C61.3308 82.84 61.3305 82.84 61.3303 82.84C61.33 82.84 61.3298 82.84 61.3295 82.84C61.3293 82.84 61.329 82.84 61.3288 82.84C61.3285 82.84 61.3282 82.84 61.328 82.84C61.3277 82.84 61.3275 82.84 61.3272 82.84C61.327 82.84 61.3267 82.84 61.3264 82.84C61.3262 82.84 61.3259 82.84 61.3257 82.84C61.3254 82.84 61.3252 82.84 61.3249 82.84C61.3247 82.84 61.3244 82.84 61.3242 82.84C61.3239 82.84 61.3237 82.84 61.3234 82.84C61.3232 82.84 61.3229 82.84 61.3226 82.84C61.3224 82.84 61.3221 82.84 61.3219 82.84C61.3216 82.84 61.3214 82.84 61.3211 82.84C61.3209 82.84 61.3206 82.84 61.3204 82.84C61.3201 82.84 61.3199 82.84 61.3196 82.84C61.3194 82.84 61.3191 82.84 61.3189 82.84C61.3186 82.84 61.3184 82.84 61.3181 82.84C61.3179 82.84 61.3176 82.84 61.3174 82.84C61.3171 82.84 61.3169 82.84 61.3166 82.84C61.3164 82.84 61.3161 82.84 61.3159 82.84C61.3157 82.84 61.3154 82.84 61.3152 82.84C61.3149 82.84 61.3147 82.84 61.3144 82.84C61.3142 82.84 61.3139 82.84 61.3137 82.84C61.3134 82.84 61.3132 82.84 61.313 82.84C61.3127 82.84 61.3125 82.84 61.3122 82.84C61.312 82.84 61.3117 82.84 61.3115 82.84C61.3112 82.84 61.311 82.84 61.3108 82.84C61.3105 82.84 61.3103 82.84 61.31 82.84C61.3098 82.84 61.3095 82.84 61.3093 82.84C61.3091 82.84 61.3088 82.84 61.3086 82.84C61.3083 82.84 61.3081 82.84 61.3078 82.84C61.3076 82.84 61.3074 82.84 61.3071 82.84C61.3069 82.84 61.3066 82.84 61.3064 82.84C61.3062 82.84 61.3059 82.84 61.3057 82.84C61.3055 82.84 61.3052 82.84 61.305 82.84C61.3047 82.84 61.3045 82.84 61.3043 82.84C61.304 82.84 61.3038 82.84 61.3035 82.84C61.3033 82.84 61.3031 82.84 61.3028 82.84C61.3026 82.84 61.3024 82.84 61.3021 82.84C61.3019 82.84 61.3017 82.84 61.3014 82.84C61.3012 82.84 61.3009 82.84 61.3007 82.84C61.3005 82.84 61.3002 82.84 61.3 82.84C61.2998 82.84 61.2995 82.84 61.2993 82.84C61.2991 82.84 61.2988 82.84 61.2986 82.84C61.2984 82.84 61.2981 82.84 61.2979 82.84C61.2977 82.84 61.2974 82.84 61.2972 82.84C61.297 82.84 61.2967 82.84 61.2965 82.84C61.2963 82.84 61.2961 82.84 61.2958 82.84C61.2956 82.84 61.2954 82.84 61.2951 82.84C61.2949 82.84 61.2947 82.84 61.2944 82.84C61.2942 82.84 61.294 82.84 61.2937 82.84C61.2935 82.84 61.2933 82.84 61.2931 82.84C61.2928 82.84 61.2926 82.84 61.2924 82.84C61.2922 82.84 61.2919 82.84 61.2917 82.84C61.2915 82.84 61.2912 82.84 61.291 82.84C61.2908 82.84 61.2906 82.84 61.2903 82.84C61.2901 82.84 61.2899 82.84 61.2897 82.84C61.2894 82.84 61.2892 82.84 61.289 82.84C61.2888 82.84 61.2885 82.84 61.2883 82.84C61.2881 82.84 61.2879 82.84 61.2877 82.84C61.2874 82.84 61.2872 82.84 61.287 82.84C61.2868 82.84 61.2865 82.84 61.2863 82.84C61.2861 82.84 61.2859 82.84 61.2857 82.84C61.2854 82.84 61.2852 82.84 61.285 82.84C61.2848 82.84 61.2846 82.84 61.2843 82.84C61.2841 82.84 61.2839 82.84 61.2837 82.84C61.2835 82.84 61.2832 82.84 61.283 82.84C61.2828 82.84 61.2826 82.84 61.2824 82.84C61.2821 82.84 61.2819 82.84 61.2817 82.84C61.2815 82.84 61.2813 82.84 61.2811 82.84C61.2808 82.84 61.2806 82.84 61.2804 82.84C61.2802 82.84 61.28 82.84 61.2798 82.84C61.2795 82.84 61.2793 82.84 61.2791 82.84C61.2789 82.84 61.2787 82.84 61.2785 82.84C61.2783 82.84 61.2781 82.84 61.2778 82.84C61.2776 82.84 61.2774 82.84 61.2772 82.84C61.277 82.84 61.2768 82.84 61.2766 82.84C61.2764 82.84 61.2761 82.84 61.2759 82.84C61.2757 82.84 61.2755 82.84 61.2753 82.84C61.2751 82.84 61.2749 82.84 61.2747 82.84C61.2745 82.84 61.2743 82.84 61.274 82.84C61.2738 82.84 61.2736 82.84 61.2734 82.84C61.2732 82.84 61.273 82.84 61.2728 82.84C61.2726 82.84 61.2724 82.84 61.2722 82.84C61.272 82.84 61.2718 82.84 61.2716 82.84C61.2713 82.84 61.2711 82.84 61.2709 82.84C61.2707 82.84 61.2705 82.84 61.2703 82.84C61.2701 82.84 61.2699 82.84 61.2697 82.84C61.2695 82.84 61.2693 82.84 61.2691 82.84C61.2689 82.84 61.2687 82.84 61.2685 82.84C61.2683 82.84 61.2681 82.84 61.2679 82.84C61.2677 82.84 61.2675 82.84 61.2673 82.84C61.2671 82.84 61.2669 82.84 61.2667 82.84C61.2665 82.84 61.2663 82.84 61.2661 82.84C61.2659 82.84 61.2657 82.84 61.2655 82.84C61.2653 82.84 61.2651 82.84 61.2649 82.84C61.2647 82.84 61.2645 82.84 61.2643 82.84C61.2641 82.84 61.2639 82.84 61.2637 82.84C61.2635 82.84 61.2633 82.84 61.2631 82.84C61.2629 82.84 61.2627 82.84 61.2625 82.84C61.2623 82.84 61.2621 82.84 61.2619 82.84C61.2618 82.84 61.2616 82.84 61.2614 82.84C61.2612 82.84 61.261 82.84 61.2608 82.84C61.2606 82.84 61.2604 82.84 61.2602 82.84C61.26 82.84 61.2598 82.84 61.2596 82.84C61.2594 82.84 61.2593 82.84 61.2591 82.84C61.2589 82.84 61.2587 82.84 61.2585 82.84C61.2583 82.84 61.2581 82.84 61.2579 82.84C61.2577 82.84 61.2576 82.84 61.2574 82.84C61.2572 82.84 61.257 82.84 61.2568 82.84C61.2566 82.84 61.2564 82.84 61.2562 82.84C61.2561 82.84 61.2559 82.84 61.2557 82.84C61.2555 82.84 61.2553 82.84 61.2551 82.84C61.2549 82.84 61.2548 82.84 61.2546 82.84C61.2544 82.84 61.2542 82.84 61.254 82.84C61.2538 82.84 61.2537 82.84 61.2535 82.84C61.2533 82.84 61.2531 82.84 61.2529 82.84C61.2527 82.84 61.2526 82.84 61.2524 82.84C61.2522 82.84 61.252 82.84 61.2518 82.84C61.2517 82.84 61.2515 82.84 61.2513 82.84C61.2511 82.84 61.2509 82.84 61.2508 82.84C61.2506 82.84 61.2504 82.84 61.2502 82.84C61.25 82.84 61.2499 82.84 61.2497 82.84C61.2495 82.84 61.2493 82.84 61.2492 82.84C61.249 82.84 61.2488 82.84 61.2486 82.84C61.2485 82.84 61.2483 82.84 61.2481 82.84C61.2479 82.84 61.2478 82.84 61.2476 82.84C61.2474 82.84 61.2472 82.84 61.2471 82.84C61.2469 82.84 61.2467 82.84 61.2465 82.84C61.2464 82.84 61.2462 82.84 61.246 82.84C61.2459 82.84 61.2457 82.84 61.2455 82.84C61.2453 82.84 61.2452 82.84 61.245 82.84C61.2448 82.84 61.2447 82.84 61.2445 82.84C61.2443 82.84 61.2442 82.84 61.244 82.84C61.2438 82.84 61.2437 82.84 61.2435 82.84C61.2433 82.84 61.2432 82.84 61.243 82.84C61.2428 82.84 61.2427 82.84 61.2425 82.84C61.2423 82.84 61.2422 82.84 61.242 82.84C61.2418 82.84 61.2417 82.84 61.2415 82.84C61.2413 82.84 61.2412 82.84 61.241 82.84C61.2409 82.84 61.2407 82.84 61.2405 82.84C61.2404 82.84 61.2402 82.84 61.24 82.84C61.2399 82.84 61.2397 82.84 61.2396 82.84C61.2394 82.84 61.2392 82.84 61.2391 82.84C61.2389 82.84 61.2388 82.84 61.2386 82.84C61.2384 82.84 61.2383 82.84 61.2381 82.84C61.238 82.84 61.2378 82.84 61.2376 82.84C61.2375 82.84 61.2373 82.84 61.2372 82.84C61.237 82.84 61.2369 82.84 61.2367 82.84C61.2366 82.84 61.2364 82.84 61.2362 82.84C61.2361 82.84 61.2359 82.84 61.2358 82.84C61.2356 82.84 61.2355 82.84 61.2353 82.84C61.2352 82.84 61.235 82.84 61.2349 82.84C61.2347 82.84 61.2346 82.84 61.2344 82.84C61.2343 82.84 61.2341 82.84 61.234 82.84C61.2338 82.84 61.2337 82.84 61.2335 82.84C61.2334 82.84 61.2332 82.84 61.2331 82.84C61.2329 82.84 61.2328 82.84 61.2326 82.84C61.2325 82.84 61.2323 82.84 61.2322 82.84C61.232 82.84 61.2319 82.84 61.2317 82.84C61.2316 82.84 61.2315 82.84 61.2313 82.84C61.2312 82.84 61.231 82.84 61.2309 82.84C61.2307 82.84 61.2306 82.84 61.2304 82.84C61.2303 82.84 61.2302 82.84 61.23 82.84C61.2299 82.84 61.2297 82.84 61.2296 82.84C61.2294 82.84 61.2293 82.84 61.2292 82.84C61.229 82.84 61.2289 82.84 61.2287 82.84C61.2286 82.84 61.2285 82.84 61.2283 82.84C61.2282 82.84 61.2281 82.84 61.2279 82.84C61.2278 82.84 61.2276 82.84 61.2275 82.84C61.2274 82.84 61.2272 82.84 61.2271 82.84C61.227 82.84 61.2268 82.84 61.2267 82.84C61.2266 82.84 61.2264 82.84 61.2263 82.84C61.2262 82.84 61.226 82.84 61.2259 82.84C61.2258 82.84 61.2256 82.84 61.2255 82.84C61.2254 82.84 61.2252 82.84 61.2251 82.84C61.225 82.84 61.2248 82.84 61.2247 82.84C61.2246 82.84 61.2244 82.84 61.2243 82.84C61.2242 82.84 61.2241 82.84 61.2239 82.84C61.2238 82.84 61.2237 82.84 61.2235 82.84C61.2234 82.84 61.2233 82.84 61.2232 82.84C61.223 82.84 61.2229 82.84 61.2228 82.84C61.2227 82.84 61.2225 82.84 61.2224 82.84C61.2223 82.84 61.2222 82.84 61.222 82.84C61.2219 82.84 61.2218 82.84 61.2217 82.84C61.2215 82.84 61.2214 82.84 61.2213 82.84C61.2212 82.84 61.2211 82.84 61.2209 82.84C61.2208 82.84 61.2207 82.84 61.2206 82.84C61.2205 82.84 61.2203 82.84 61.2202 82.84C61.2201 82.84 61.22 82.84 61.2199 82.84C61.2197 82.84 61.2196 82.84 61.2195 82.84C61.2194 82.84 61.2193 82.84 61.2192 82.84C61.219 82.84 61.2189 82.84 61.2188 82.84C61.2187 82.84 61.2186 82.84 61.2185 82.84C61.2184 82.84 61.2182 82.84 61.2181 82.84C61.218 82.84 61.2179 82.84 61.2178 82.84C61.2177 82.84 61.2176 82.84 61.2175 82.84C61.2173 82.84 61.2172 82.84 61.2171 82.84C61.217 82.84 61.2169 82.84 61.2168 82.84C61.2167 82.84 61.2166 82.84 61.2165 82.84C61.2164 82.84 61.2162 82.84 61.2161 82.84C61.216 82.84 61.2159 82.84 61.2158 82.84C61.2157 82.84 61.2156 82.84 61.2155 82.84C61.2154 82.84 61.2153 82.84 61.2152 82.84C61.2151 82.84 61.215 82.84 61.2149 82.84C61.2148 82.84 61.2147 82.84 61.2146 82.84C61.2145 82.84 61.2144 82.84 61.2143 82.84C61.2142 82.84 61.2141 82.84 61.214 82.84C61.2139 82.84 61.2138 82.84 61.2137 82.84C61.2136 82.84 61.2135 82.84 61.2134 82.84C61.2133 82.84 61.2132 82.84 61.2131 82.84C61.213 82.84 61.2129 82.84 61.2128 82.84C61.2127 82.84 61.2126 82.84 61.2125 82.84C61.2124 82.84 61.2123 82.84 61.2122 82.84C61.2121 82.84 61.212 82.84 61.2119 82.84C61.2118 82.84 61.2117 82.84 61.2117 82.84C61.2116 82.84 61.2115 82.84 61.2114 82.84C61.2113 82.84 61.2112 82.84 61.2111 82.84C61.211 82.84 61.2109 82.84 61.2108 82.84C61.2108 82.84 61.2107 82.84 61.2106 82.84C61.2105 82.84 61.2104 82.84 61.2103 82.84C61.2102 82.84 61.2101 82.84 61.2101 82.84C61.21 82.84 61.2099 82.84 61.2098 82.84C61.2097 82.84 61.2096 82.84 61.2095 82.84C61.2095 82.84 61.2094 82.84 61.2093 82.84C61.2092 82.84 61.2091 82.84 61.2091 82.84C61.209 82.84 61.2089 82.84 61.2088 82.84C61.2087 82.84 61.2086 82.84 61.2086 82.84C61.2085 82.84 61.2084 82.84 61.2083 82.84C61.2083 82.84 61.2082 82.84 61.2081 82.84C61.208 82.84 61.2079 82.84 61.2079 82.84C61.2078 82.84 61.2077 82.84 61.2076 82.84C61.2076 82.84 61.2075 82.84 61.2074 82.84C61.2073 82.84 61.2073 82.84 61.2072 82.84C61.2071 82.84 61.207 82.84 61.207 82.84C61.2069 82.84 61.2068 82.84 61.2068 82.84C61.2067 82.84 61.2066 82.84 61.2065 82.84C61.2065 82.84 61.2064 82.84 61.2063 82.84C61.2063 82.84 61.2062 82.84 61.2061 82.84C61.2061 82.84 61.206 82.84 61.2059 82.84C61.2059 82.84 61.2058 82.84 61.2057 82.84C61.2057 82.84 61.2056 82.84 61.2055 82.84C61.2055 82.84 61.2054 82.84 61.2053 82.84C61.2053 82.84 61.2052 82.84 61.2052 82.84C61.2051 82.84 61.205 82.84 61.205 82.84C61.2049 82.84 61.2048 82.84 61.2048 82.84C61.2047 82.84 61.2047 82.84 61.2046 82.84C61.2046 82.84 61.2045 82.84 61.2044 82.84C61.2044 82.84 61.2043 82.84 61.2043 82.84C61.2042 82.84 61.2041 82.84 61.2041 82.84C61.204 82.84 61.204 82.84 61.2039 82.84C61.2039 82.84 61.2038 82.84 61.2038 82.84C61.2037 82.84 61.2037 82.84 61.2036 82.84C61.2036 82.84 61.2035 82.84 61.2034 82.84C61.2034 82.84 61.2033 82.84 61.2033 82.84C61.2032 82.84 61.2032 82.84 61.2031 82.84C61.2031 82.84 61.203 82.84 61.203 82.84C61.2029 82.84 61.2029 82.84 61.2029 82.84C61.2028 82.84 61.2028 82.84 61.2027 82.84C61.2027 82.84 61.2026 82.84 61.2026 82.84C61.2025 82.84 61.2025 82.84 61.2024 82.84C61.2024 82.84 61.2024 82.84 61.2023 82.84C61.2023 82.84 61.2022 82.84 61.2022 82.84C61.2022 82.84 61.2021 82.84 61.2021 82.84C61.202 82.84 61.202 82.84 61.202 82.84C61.2019 82.84 61.2019 82.84 61.2018 82.84C61.2018 82.84 61.2018 82.84 61.2017 82.84C61.2017 82.84 61.2017 82.84 61.2016 82.84C61.2016 82.84 61.2015 82.84 61.2015 82.84C61.2015 82.84 61.2014 82.84 61.2014 82.84C61.2014 82.84 61.2013 82.84 61.2013 82.84C61.2013 82.84 61.2012 82.84 61.2012 82.84C61.2012 82.84 61.2012 82.84 61.2011 82.84C61.2011 82.84 61.2011 82.84 61.201 82.84C61.201 82.84 61.201 82.84 61.201 82.84C61.2009 82.84 61.2009 82.84 61.2009 82.84C61.2009 82.84 61.2008 82.84 61.2008 82.84C61.2008 82.84 61.2008 82.84 61.2007 82.84C61.2007 82.84 61.2007 82.84 61.2007 82.84C61.2006 82.84 61.2006 82.84 61.2006 82.84C61.2006 82.84 61.2005 82.84 61.2005 82.84C61.2005 82.84 61.2005 82.84 61.2005 82.84C61.2004 82.84 61.2004 82.84 61.2004 82.84C61.2004 82.84 61.2004 82.84 61.2004 82.84C61.2003 82.84 61.2003 82.84 61.2003 82.84C61.2003 82.84 61.2003 82.84 61.2003 82.84C61.2002 82.84 61.2002 82.84 61.2002 82.84C61.2002 82.84 61.2002 82.84 61.2002 82.84C61.2002 82.84 61.2002 82.84 61.2001 82.84C61.2001 82.84 61.2001 82.84 61.2001 82.84C61.2001 82.84 61.2001 82.84 61.2001 82.84C61.2001 82.84 61.2001 82.84 61.2001 82.84C61.2001 82.84 61.2001 82.84 61.2001 82.84C61.2 82.84 61.2 82.84 61.2 82.84C61.2 82.84 61.2 82.84 61.2 82.84C61.2 82.84 61.2 82.84 61.2 82.84C61.2 82.84 61.2 82.84 61.2 82.84C61.2 82.84 61.2 82.84 61.2 84.84ZM63.0937 83.6057L50.2937 67.2857L47.1463 69.7543L59.9463 86.0743L63.0937 83.6057ZM131.688 4.99999V2.99999H129.688V4.99999H131.688ZM168.967 4.99999H170.967V2.99999H168.967V4.99999ZM206.247 4.99999V2.99999H204.247V4.99999H206.247ZM243.527 4.99999H245.527V2.99999H243.527V4.99999ZM131.688 6.99999H168.967V2.99999H131.688V6.99999ZM166.967 4.99999V65.96H170.967V4.99999H166.967ZM166.967 65.96C166.967 77.2502 175.02 87.64 187.527 87.64V83.64C177.635 83.64 170.967 75.4698 170.967 65.96H166.967ZM187.527 87.64C200.184 87.64 208.247 77.2624 208.247 65.96H204.247C204.247 75.4576 197.591 83.64 187.527 83.64V87.64ZM208.247 65.96V4.99999H204.247V65.96H208.247ZM206.247 6.99999H243.527V2.99999H206.247V6.99999ZM241.527 4.99999V65.96H245.527V4.99999H241.527ZM241.527 65.96C241.527 95.728 217.31 119.8 187.527 119.8V123.8C219.505 123.8 245.527 97.952 245.527 65.96H241.527ZM187.527 119.8C157.752 119.8 133.688 95.7354 133.688 65.96H129.688C129.688 97.9446 155.543 123.8 187.527 123.8V119.8ZM133.688 65.96V4.99999H129.688V65.96H133.688ZM316.724 79.72V81.72H319.503L318.62 79.0849L316.724 79.72ZM305.044 44.84L306.94 44.2049L305.031 38.5023L303.145 44.2128L305.044 44.84ZM293.524 79.72L291.625 79.0928L290.757 81.72H293.524V79.72ZM241.844 117L239.946 116.368L239.07 119H241.844V117ZM279.124 4.99999V2.99999H277.682L277.226 4.36835L279.124 4.99999ZM330.964 4.99999L332.861 4.36835L332.406 2.99999H330.964V4.99999ZM368.244 117V119H371.017L370.141 116.368L368.244 117ZM329.044 117L327.143 117.623L327.594 119H329.044V117ZM326.004 107.72L327.904 107.097L327.453 105.72H326.004V107.72ZM284.084 107.72V105.72H282.634L282.183 107.097L284.084 107.72ZM281.044 117V119H282.493L282.944 117.623L281.044 117ZM318.62 79.0849L306.94 44.2049L303.147 45.4751L314.827 80.3551L318.62 79.0849ZM303.145 44.2128L291.625 79.0928L295.423 80.3472L306.943 45.4672L303.145 44.2128ZM293.524 81.72H316.724V77.72H293.524V81.72ZM243.741 117.632L281.021 5.63163L277.226 4.36835L239.946 116.368L243.741 117.632ZM279.124 6.99999H330.964V2.99999H279.124V6.99999ZM329.066 5.63163L366.346 117.632L370.141 116.368L332.861 4.36835L329.066 5.63163ZM368.244 115H329.044V119H368.244V115ZM330.944 116.377L327.904 107.097L324.103 108.343L327.143 117.623L330.944 116.377ZM326.004 105.72H284.084V109.72H326.004V105.72ZM282.183 107.097L279.143 116.377L282.944 117.623L285.984 108.343L282.183 107.097ZM281.044 115H241.844V119H281.044V115ZM376.181 117H374.181V119H376.181V117ZM376.181 4.99999V2.99999H374.181V4.99999H376.181ZM413.461 42.28V40.28H411.461V42.28H413.461ZM413.461 79.72H411.461V81.72H413.461V79.72ZM432.181 115H376.181V119H432.181V115ZM378.181 117V4.99999H374.181V117H378.181ZM376.181 6.99999H432.181V2.99999H376.181V6.99999ZM432.181 6.99999C461.957 6.99999 486.181 31.2246 486.181 61H490.181C490.181 29.0154 464.166 2.99999 432.181 2.99999V6.99999ZM486.181 61C486.181 90.7754 461.957 115 432.181 115V119C464.166 119 490.181 92.9846 490.181 61H486.181ZM411.461 42.28V79.72H415.461V42.28H411.461ZM413.461 81.72H432.181V77.72H413.461V81.72ZM432.181 81.72C443.526 81.72 452.901 72.3446 452.901 61H448.901C448.901 70.1354 441.317 77.72 432.181 77.72V81.72ZM452.901 61C452.901 49.6554 443.526 40.28 432.181 40.28V44.28C441.317 44.28 448.901 51.8646 448.901 61H452.901ZM432.181 40.28H413.461V44.28H432.181V40.28ZM538.343 42.28V40.28H536.343V42.28H538.343ZM538.343 61H536.343V63H538.343V61ZM501.062 117H499.062V119H501.062V117ZM501.062 4.99999V2.99999H499.062V4.99999H501.062ZM586.182 93.96L585.34 92.1462L583.082 93.1954L584.593 95.1741L586.182 93.96ZM603.783 117V119H607.827L605.372 115.786L603.783 117ZM562.662 117L561.031 118.157L561.629 119H562.662V117ZM549.383 98.28L551.014 97.1228L550.416 96.28H549.383V98.28ZM538.343 98.28V96.28H536.343V98.28H538.343ZM538.343 117V119H540.343V117H538.343ZM566.343 40.28H538.343V44.28H566.343V40.28ZM536.343 42.28V61H540.343V42.28H536.343ZM538.343 63H566.343V59H538.343V63ZM566.343 63C572.705 63 577.783 57.9668 577.783 51.72H573.783C573.783 55.7132 570.54 59 566.343 59V63ZM577.783 51.72C577.783 45.3354 572.727 40.28 566.343 40.28V44.28C570.518 44.28 573.783 47.5446 573.783 51.72H577.783ZM503.062 117V4.99999H499.062V117H503.062ZM501.062 6.99999H566.343V2.99999H501.062V6.99999ZM566.343 6.99999C590.998 6.99999 611.062 27.0646 611.062 51.72H615.062C615.062 24.8554 593.207 2.99999 566.343 2.99999V6.99999ZM611.062 51.72C611.062 69.4806 600.493 85.1051 585.34 92.1462L587.025 95.7738C603.552 88.0948 615.062 71.0794 615.062 51.72H611.062ZM584.593 95.1741L602.193 118.214L605.372 115.786L587.772 92.7459L584.593 95.1741ZM603.783 115H562.662V119H603.783V115ZM564.294 115.843L551.014 97.1228L547.751 99.4372L561.031 118.157L564.294 115.843ZM549.383 96.28H538.343V100.28H549.383V96.28ZM536.343 98.28V117H540.343V98.28H536.343ZM538.343 115H501.062V119H538.343V115ZM686.255 79.72V81.72H689.034L688.151 79.0849L686.255 79.72ZM674.575 44.84L676.471 44.2049L674.562 38.5023L672.676 44.2128L674.575 44.84ZM663.055 79.72L661.156 79.0928L660.288 81.72H663.055V79.72ZM611.375 117L609.477 116.368L608.601 119H611.375V117ZM648.655 4.99999V2.99999H647.213L646.757 4.36835L648.655 4.99999ZM700.495 4.99999L702.393 4.36835L701.937 2.99999H700.495V4.99999ZM737.775 117V119H740.549L739.673 116.368L737.775 117ZM698.575 117L696.674 117.623L697.126 119H698.575V117ZM695.535 107.72L697.436 107.097L696.984 105.72H695.535V107.72ZM653.615 107.72V105.72H652.166L651.714 107.097L653.615 107.72ZM650.575 117V119H652.024L652.476 117.623L650.575 117ZM688.151 79.0849L676.471 44.2049L672.679 45.4751L684.359 80.3551L688.151 79.0849ZM672.676 44.2128L661.156 79.0928L664.954 80.3472L676.474 45.4672L672.676 44.2128ZM663.055 81.72H686.255V77.72H663.055V81.72ZM613.273 117.632L650.553 5.63163L646.757 4.36835L609.477 116.368L613.273 117.632ZM648.655 6.99999H700.495V2.99999H648.655V6.99999ZM698.597 5.63163L735.877 117.632L739.673 116.368L702.393 4.36835L698.597 5.63163ZM737.775 115H698.575V119H737.775V115ZM700.476 116.377L697.436 107.097L693.634 108.343L696.674 117.623L700.476 116.377ZM695.535 105.72H653.615V109.72H695.535V105.72ZM651.714 107.097L648.674 116.377L652.476 117.623L655.516 108.343L651.714 107.097ZM650.575 115H611.375V119H650.575V115Z" fill="white" mask="url(#path-1-outside-1_21_2)"/>
</svg>
